<svg xmlns="http://www.w3.org/2000/svg" xmlns:xlink="http://www.w3.org/1999/xlink" width="500" zoomAndPan="magnify" viewBox="0 0 375 374.999991" height="500" preserveAspectRatio="xMidYMid meet" version="1.0"><defs><filter x="0%" y="0%" width="100%" height="100%" id="id1"><feColorMatrix values="0 0 0 0 1 0 0 0 0 1 0 0 0 0 1 0 0 0 1 0" color-interpolation-filters="sRGB"/></filter><clipPath id="id2"><path d="M 0.265625 0.265625 L 374.734375 0.265625 L 374.734375 374.734375 L 0.265625 374.734375 Z M 0.265625 0.265625 " clip-rule="nonzero"/></clipPath><linearGradient x1="-38.250965" gradientTransform="matrix(0.119959, 0, 0, 0.119959, 0.0000045, 0)" y1="3083.176699" x2="3092.705301" gradientUnits="userSpaceOnUse" y2="-29.151128" id="id3"><stop stop-opacity="1" stop-color="rgb(0%, 0%, 0%)" offset="0"/><stop stop-opacity="1" stop-color="rgb(0%, 0%, 0%)" offset="0.125"/><stop stop-opacity="1" stop-color="rgb(0%, 0%, 0%)" offset="0.15625"/><stop stop-opacity="1" stop-color="rgb(0.137329%, 0.137329%, 0.137329%)" offset="0.164062"/><stop stop-opacity="1" stop-color="rgb(0.491333%, 0.491333%, 0.491333%)" offset="0.167969"/><stop stop-opacity="1" stop-color="rgb(0.708008%, 0.708008%, 0.708008%)" offset="0.171875"/><stop stop-opacity="1" stop-color="rgb(0.924683%, 0.924683%, 0.924683%)" offset="0.175781"/><stop stop-opacity="1" stop-color="rgb(1.142883%, 1.142883%, 1.142883%)" offset="0.179687"/><stop stop-opacity="1" stop-color="rgb(1.359558%, 1.359558%, 1.359558%)" offset="0.183594"/><stop stop-opacity="1" stop-color="rgb(1.577759%, 1.577759%, 1.577759%)" offset="0.1875"/><stop stop-opacity="1" stop-color="rgb(1.794434%, 1.794434%, 1.794434%)" offset="0.191406"/><stop stop-opacity="1" stop-color="rgb(2.012634%, 2.012634%, 2.012634%)" offset="0.195312"/><stop stop-opacity="1" stop-color="rgb(2.229309%, 2.229309%, 2.229309%)" offset="0.199219"/><stop stop-opacity="1" stop-color="rgb(2.44751%, 2.44751%, 2.44751%)" offset="0.203125"/><stop stop-opacity="1" stop-color="rgb(2.664185%, 2.664185%, 2.664185%)" offset="0.207031"/><stop stop-opacity="1" stop-color="rgb(2.882385%, 2.882385%, 2.882385%)" offset="0.210938"/><stop stop-opacity="1" stop-color="rgb(3.09906%, 3.09906%, 3.09906%)" offset="0.214844"/><stop stop-opacity="1" stop-color="rgb(3.315735%, 3.315735%, 3.315735%)" offset="0.21875"/><stop stop-opacity="1" stop-color="rgb(3.53241%, 3.53241%, 3.53241%)" offset="0.222656"/><stop stop-opacity="1" stop-color="rgb(3.75061%, 3.75061%, 3.75061%)" offset="0.226562"/><stop stop-opacity="1" stop-color="rgb(3.967285%, 3.967285%, 3.967285%)" offset="0.230469"/><stop stop-opacity="1" stop-color="rgb(4.185486%, 4.185486%, 4.185486%)" offset="0.234375"/><stop stop-opacity="1" stop-color="rgb(4.402161%, 4.402161%, 4.402161%)" offset="0.238281"/><stop stop-opacity="1" stop-color="rgb(4.620361%, 4.620361%, 4.620361%)" offset="0.242188"/><stop stop-opacity="1" stop-color="rgb(4.837036%, 4.837036%, 4.837036%)" offset="0.246094"/><stop stop-opacity="1" stop-color="rgb(5.055237%, 5.055237%, 5.055237%)" offset="0.25"/><stop stop-opacity="1" stop-color="rgb(5.271912%, 5.271912%, 5.271912%)" offset="0.253906"/><stop stop-opacity="1" stop-color="rgb(5.488586%, 5.488586%, 5.488586%)" offset="0.257812"/><stop stop-opacity="1" stop-color="rgb(5.705261%, 5.705261%, 5.705261%)" offset="0.261719"/><stop stop-opacity="1" stop-color="rgb(5.923462%, 5.923462%, 5.923462%)" offset="0.265625"/><stop stop-opacity="1" stop-color="rgb(6.140137%, 6.140137%, 6.140137%)" offset="0.269531"/><stop stop-opacity="1" stop-color="rgb(6.358337%, 6.358337%, 6.358337%)" offset="0.273438"/><stop stop-opacity="1" stop-color="rgb(6.575012%, 6.575012%, 6.575012%)" offset="0.277344"/><stop stop-opacity="1" stop-color="rgb(6.793213%, 6.793213%, 6.793213%)" offset="0.28125"/><stop stop-opacity="1" stop-color="rgb(7.009888%, 7.009888%, 7.009888%)" offset="0.285156"/><stop stop-opacity="1" stop-color="rgb(7.228088%, 7.228088%, 7.228088%)" offset="0.289062"/><stop stop-opacity="1" stop-color="rgb(7.444763%, 7.444763%, 7.444763%)" offset="0.292969"/><stop stop-opacity="1" stop-color="rgb(7.661438%, 7.661438%, 7.661438%)" offset="0.296875"/><stop stop-opacity="1" stop-color="rgb(7.878113%, 7.878113%, 7.878113%)" offset="0.300781"/><stop stop-opacity="1" stop-color="rgb(8.096313%, 8.096313%, 8.096313%)" offset="0.304687"/><stop stop-opacity="1" stop-color="rgb(8.312988%, 8.312988%, 8.312988%)" offset="0.308594"/><stop stop-opacity="1" stop-color="rgb(8.531189%, 8.531189%, 8.531189%)" offset="0.3125"/><stop stop-opacity="1" stop-color="rgb(8.747864%, 8.747864%, 8.747864%)" offset="0.316406"/><stop stop-opacity="1" stop-color="rgb(8.966064%, 8.966064%, 8.966064%)" offset="0.320312"/><stop stop-opacity="1" stop-color="rgb(9.182739%, 9.182739%, 9.182739%)" offset="0.324219"/><stop stop-opacity="1" stop-color="rgb(9.40094%, 9.40094%, 9.40094%)" offset="0.328125"/><stop stop-opacity="1" stop-color="rgb(9.617615%, 9.617615%, 9.617615%)" offset="0.332031"/><stop stop-opacity="1" stop-color="rgb(9.83429%, 9.83429%, 9.83429%)" offset="0.335938"/><stop stop-opacity="1" stop-color="rgb(10.050964%, 10.050964%, 10.050964%)" offset="0.339844"/><stop stop-opacity="1" stop-color="rgb(10.269165%, 10.269165%, 10.269165%)" offset="0.34375"/><stop stop-opacity="1" stop-color="rgb(10.48584%, 10.48584%, 10.48584%)" offset="0.347656"/><stop stop-opacity="1" stop-color="rgb(10.704041%, 10.704041%, 10.704041%)" offset="0.351562"/><stop stop-opacity="1" stop-color="rgb(10.920715%, 10.920715%, 10.920715%)" offset="0.355469"/><stop stop-opacity="1" stop-color="rgb(11.138916%, 11.138916%, 11.138916%)" offset="0.359375"/><stop stop-opacity="1" stop-color="rgb(11.355591%, 11.355591%, 11.355591%)" offset="0.363281"/><stop stop-opacity="1" stop-color="rgb(11.573792%, 11.573792%, 11.573792%)" offset="0.367187"/><stop stop-opacity="1" stop-color="rgb(11.790466%, 11.790466%, 11.790466%)" offset="0.371094"/><stop stop-opacity="1" stop-color="rgb(12.008667%, 12.008667%, 12.008667%)" offset="0.375"/><stop stop-opacity="1" stop-color="rgb(12.225342%, 12.225342%, 12.225342%)" offset="0.378906"/><stop stop-opacity="1" stop-color="rgb(12.442017%, 12.442017%, 12.442017%)" offset="0.382813"/><stop stop-opacity="1" stop-color="rgb(12.658691%, 12.658691%, 12.658691%)" offset="0.386719"/><stop stop-opacity="1" stop-color="rgb(12.876892%, 12.876892%, 12.876892%)" offset="0.390625"/><stop stop-opacity="1" stop-color="rgb(13.093567%, 13.093567%, 13.093567%)" offset="0.394531"/><stop stop-opacity="1" stop-color="rgb(13.311768%, 13.311768%, 13.311768%)" offset="0.398438"/><stop stop-opacity="1" stop-color="rgb(13.528442%, 13.528442%, 13.528442%)" offset="0.402344"/><stop stop-opacity="1" stop-color="rgb(13.746643%, 13.746643%, 13.746643%)" offset="0.40625"/><stop stop-opacity="1" stop-color="rgb(13.963318%, 13.963318%, 13.963318%)" offset="0.410156"/><stop stop-opacity="1" stop-color="rgb(14.181519%, 14.181519%, 14.181519%)" offset="0.414062"/><stop stop-opacity="1" stop-color="rgb(14.398193%, 14.398193%, 14.398193%)" offset="0.417969"/><stop stop-opacity="1" stop-color="rgb(14.614868%, 14.614868%, 14.614868%)" offset="0.421875"/><stop stop-opacity="1" stop-color="rgb(14.831543%, 14.831543%, 14.831543%)" offset="0.425781"/><stop stop-opacity="1" stop-color="rgb(15.049744%, 15.049744%, 15.049744%)" offset="0.429688"/><stop stop-opacity="1" stop-color="rgb(15.266418%, 15.266418%, 15.266418%)" offset="0.433594"/><stop stop-opacity="1" stop-color="rgb(15.484619%, 15.484619%, 15.484619%)" offset="0.4375"/><stop stop-opacity="1" stop-color="rgb(15.701294%, 15.701294%, 15.701294%)" offset="0.441406"/><stop stop-opacity="1" stop-color="rgb(15.919495%, 15.919495%, 15.919495%)" offset="0.445312"/><stop stop-opacity="1" stop-color="rgb(16.136169%, 16.136169%, 16.136169%)" offset="0.449219"/><stop stop-opacity="1" stop-color="rgb(16.35437%, 16.35437%, 16.35437%)" offset="0.453125"/><stop stop-opacity="1" stop-color="rgb(16.571045%, 16.571045%, 16.571045%)" offset="0.457031"/><stop stop-opacity="1" stop-color="rgb(16.78772%, 16.78772%, 16.78772%)" offset="0.460937"/><stop stop-opacity="1" stop-color="rgb(17.004395%, 17.004395%, 17.004395%)" offset="0.464844"/><stop stop-opacity="1" stop-color="rgb(17.222595%, 17.222595%, 17.222595%)" offset="0.46875"/><stop stop-opacity="1" stop-color="rgb(17.43927%, 17.43927%, 17.43927%)" offset="0.472656"/><stop stop-opacity="1" stop-color="rgb(17.657471%, 17.657471%, 17.657471%)" offset="0.476562"/><stop stop-opacity="1" stop-color="rgb(17.874146%, 17.874146%, 17.874146%)" offset="0.480469"/><stop stop-opacity="1" stop-color="rgb(18.092346%, 18.092346%, 18.092346%)" offset="0.484375"/><stop stop-opacity="1" stop-color="rgb(18.309021%, 18.309021%, 18.309021%)" offset="0.488281"/><stop stop-opacity="1" stop-color="rgb(18.527222%, 18.527222%, 18.527222%)" offset="0.492188"/><stop stop-opacity="1" stop-color="rgb(18.743896%, 18.743896%, 18.743896%)" offset="0.496094"/><stop stop-opacity="1" stop-color="rgb(18.960571%, 18.960571%, 18.960571%)" offset="0.5"/><stop stop-opacity="1" stop-color="rgb(19.177246%, 19.177246%, 19.177246%)" offset="0.503906"/><stop stop-opacity="1" stop-color="rgb(19.395447%, 19.395447%, 19.395447%)" offset="0.507812"/><stop stop-opacity="1" stop-color="rgb(19.612122%, 19.612122%, 19.612122%)" offset="0.511719"/><stop stop-opacity="1" stop-color="rgb(19.830322%, 19.830322%, 19.830322%)" offset="0.515625"/><stop stop-opacity="1" stop-color="rgb(20.046997%, 20.046997%, 20.046997%)" offset="0.519531"/><stop stop-opacity="1" stop-color="rgb(20.265198%, 20.265198%, 20.265198%)" offset="0.523438"/><stop stop-opacity="1" stop-color="rgb(20.481873%, 20.481873%, 20.481873%)" offset="0.527344"/><stop stop-opacity="1" stop-color="rgb(20.700073%, 20.700073%, 20.700073%)" offset="0.53125"/><stop stop-opacity="1" stop-color="rgb(20.916748%, 20.916748%, 20.916748%)" offset="0.535156"/><stop stop-opacity="1" stop-color="rgb(21.134949%, 21.134949%, 21.134949%)" offset="0.539062"/><stop stop-opacity="1" stop-color="rgb(21.351624%, 21.351624%, 21.351624%)" offset="0.542969"/><stop stop-opacity="1" stop-color="rgb(21.568298%, 21.568298%, 21.568298%)" offset="0.546875"/><stop stop-opacity="1" stop-color="rgb(21.784973%, 21.784973%, 21.784973%)" offset="0.550781"/><stop stop-opacity="1" stop-color="rgb(22.003174%, 22.003174%, 22.003174%)" offset="0.554688"/><stop stop-opacity="1" stop-color="rgb(22.219849%, 22.219849%, 22.219849%)" offset="0.558594"/><stop stop-opacity="1" stop-color="rgb(22.438049%, 22.438049%, 22.438049%)" offset="0.5625"/><stop stop-opacity="1" stop-color="rgb(22.654724%, 22.654724%, 22.654724%)" offset="0.566406"/><stop stop-opacity="1" stop-color="rgb(22.872925%, 22.872925%, 22.872925%)" offset="0.570313"/><stop stop-opacity="1" stop-color="rgb(23.0896%, 23.0896%, 23.0896%)" offset="0.574219"/><stop stop-opacity="1" stop-color="rgb(23.3078%, 23.3078%, 23.3078%)" offset="0.578125"/><stop stop-opacity="1" stop-color="rgb(23.524475%, 23.524475%, 23.524475%)" offset="0.582031"/><stop stop-opacity="1" stop-color="rgb(23.74115%, 23.74115%, 23.74115%)" offset="0.585938"/><stop stop-opacity="1" stop-color="rgb(23.957825%, 23.957825%, 23.957825%)" offset="0.589844"/><stop stop-opacity="1" stop-color="rgb(24.176025%, 24.176025%, 24.176025%)" offset="0.59375"/><stop stop-opacity="1" stop-color="rgb(24.3927%, 24.3927%, 24.3927%)" offset="0.597656"/><stop stop-opacity="1" stop-color="rgb(24.610901%, 24.610901%, 24.610901%)" offset="0.601563"/><stop stop-opacity="1" stop-color="rgb(24.827576%, 24.827576%, 24.827576%)" offset="0.605469"/><stop stop-opacity="1" stop-color="rgb(25.045776%, 25.045776%, 25.045776%)" offset="0.609375"/><stop stop-opacity="1" stop-color="rgb(25.262451%, 25.262451%, 25.262451%)" offset="0.613281"/><stop stop-opacity="1" stop-color="rgb(25.480652%, 25.480652%, 25.480652%)" offset="0.617188"/><stop stop-opacity="1" stop-color="rgb(25.697327%, 25.697327%, 25.697327%)" offset="0.621094"/><stop stop-opacity="1" stop-color="rgb(25.914001%, 25.914001%, 25.914001%)" offset="0.625"/><stop stop-opacity="1" stop-color="rgb(26.130676%, 26.130676%, 26.130676%)" offset="0.628906"/><stop stop-opacity="1" stop-color="rgb(26.348877%, 26.348877%, 26.348877%)" offset="0.632812"/><stop stop-opacity="1" stop-color="rgb(26.565552%, 26.565552%, 26.565552%)" offset="0.636719"/><stop stop-opacity="1" stop-color="rgb(26.783752%, 26.783752%, 26.783752%)" offset="0.640625"/><stop stop-opacity="1" stop-color="rgb(27.000427%, 27.000427%, 27.000427%)" offset="0.644531"/><stop stop-opacity="1" stop-color="rgb(27.218628%, 27.218628%, 27.218628%)" offset="0.648438"/><stop stop-opacity="1" stop-color="rgb(27.435303%, 27.435303%, 27.435303%)" offset="0.652344"/><stop stop-opacity="1" stop-color="rgb(27.653503%, 27.653503%, 27.653503%)" offset="0.65625"/><stop stop-opacity="1" stop-color="rgb(27.870178%, 27.870178%, 27.870178%)" offset="0.660156"/><stop stop-opacity="1" stop-color="rgb(28.086853%, 28.086853%, 28.086853%)" offset="0.664062"/><stop stop-opacity="1" stop-color="rgb(28.303528%, 28.303528%, 28.303528%)" offset="0.667969"/><stop stop-opacity="1" stop-color="rgb(28.521729%, 28.521729%, 28.521729%)" offset="0.671875"/><stop stop-opacity="1" stop-color="rgb(28.738403%, 28.738403%, 28.738403%)" offset="0.675781"/><stop stop-opacity="1" stop-color="rgb(28.956604%, 28.956604%, 28.956604%)" offset="0.679688"/><stop stop-opacity="1" stop-color="rgb(29.173279%, 29.173279%, 29.173279%)" offset="0.683594"/><stop stop-opacity="1" stop-color="rgb(29.391479%, 29.391479%, 29.391479%)" offset="0.6875"/><stop stop-opacity="1" stop-color="rgb(29.394531%, 29.394531%, 29.394531%)" offset="0.75"/><stop stop-opacity="1" stop-color="rgb(29.399109%, 29.399109%, 29.399109%)" offset="1"/></linearGradient><mask id="id4"><g filter="url(#id1)"><rect x="-37.5" width="450" fill="rgb(0%, 0%, 0%)" y="-37.499999" height="449.999989" fill-opacity="0.298"/></g></mask><clipPath id="id5"><path d="M 0 0 L 375 0 L 375 375 L 0 375 Z M 0 0 " clip-rule="nonzero"/></clipPath><clipPath id="id6"><rect x="0" width="375" y="0" height="375"/></clipPath><clipPath id="id7"><path d="M 76.996094 60.402344 L 298.246094 60.402344 L 298.246094 337.152344 L 76.996094 337.152344 Z M 76.996094 60.402344 " clip-rule="nonzero"/></clipPath><clipPath id="id8"><path d="M 231.292969 277.722656 L 231.292969 235.054688 L 128.171875 235.054688 L 128.171875 259.671875 C 134.484375 260.832031 139.667969 265.207031 141.957031 271.03125 L 180.101562 271.03125 C 182.1875 268.144531 185.589844 266.261719 189.429688 266.261719 C 195.777344 266.261719 200.921875 271.394531 200.921875 277.722656 C 200.921875 284.054688 195.777344 289.1875 189.429688 289.1875 C 185.589844 289.1875 182.1875 287.308594 180.101562 284.421875 L 141.957031 284.421875 C 140.589844 287.90625 138.183594 290.871094 135.121094 292.941406 C 136.796875 296.289062 139.007812 299.335938 141.640625 301.960938 C 147.875 308.183594 156.476562 312.046875 165.929688 312.046875 L 234.894531 312.046875 C 237.574219 305.21875 244.238281 300.382812 252.035156 300.382812 C 259.828125 300.382812 266.488281 305.21875 269.171875 312.046875 L 269.175781 312.046875 C 269.988281 314.121094 270.4375 316.378906 270.4375 318.742188 C 270.4375 328.882812 262.195312 337.101562 252.035156 337.101562 C 244.238281 337.101562 237.574219 332.265625 234.894531 325.4375 L 165.929688 325.4375 C 152.769531 325.4375 140.8125 320.070312 132.148438 311.425781 C 127.707031 306.996094 124.128906 301.699219 121.695312 295.820312 C 114.035156 294.515625 107.988281 288.484375 106.679688 280.839844 C 100.789062 278.410156 95.480469 274.84375 91.039062 270.410156 C 82.371094 261.765625 76.996094 249.839844 76.996094 236.710938 C 76.996094 227.886719 79.4375 219.59375 83.679688 212.472656 C 84.886719 210.445312 86.238281 208.515625 87.726562 206.695312 C 87.082031 204.824219 86.734375 202.820312 86.734375 200.734375 C 86.734375 197.648438 87.5 194.742188 88.84375 192.191406 C 86.914062 189.988281 85.183594 187.609375 83.679688 185.085938 C 79.4375 177.960938 76.996094 169.671875 76.996094 160.847656 C 76.996094 147.722656 82.371094 135.792969 91.039062 127.148438 C 95.480469 122.714844 100.789062 119.148438 106.679688 116.71875 C 107.988281 109.074219 114.035156 103.042969 121.695312 101.738281 C 124.128906 95.859375 127.707031 90.5625 132.148438 86.132812 C 140.8125 77.484375 152.769531 72.121094 165.929688 72.121094 L 234.894531 72.121094 C 237.574219 65.292969 244.238281 60.457031 252.035156 60.457031 C 259.828125 60.457031 266.488281 65.292969 269.171875 72.121094 L 269.175781 72.121094 C 269.988281 74.195312 270.4375 76.453125 270.4375 78.816406 C 270.4375 81.179688 269.988281 83.4375 269.175781 85.511719 L 269.171875 85.511719 C 266.488281 92.339844 259.828125 97.175781 252.035156 97.175781 C 244.238281 97.175781 237.574219 92.339844 234.894531 85.511719 L 165.929688 85.511719 C 156.476562 85.511719 147.875 89.375 141.640625 95.597656 C 139.007812 98.222656 136.796875 101.269531 135.121094 104.617188 C 138.183594 106.6875 140.589844 109.652344 141.957031 113.136719 L 180.101562 113.136719 C 182.1875 110.246094 185.589844 108.367188 189.429688 108.367188 C 195.777344 108.367188 200.921875 113.5 200.921875 119.832031 C 200.921875 126.164062 195.777344 131.296875 189.429688 131.296875 C 185.589844 131.296875 182.1875 129.414062 180.101562 126.527344 L 141.957031 126.527344 C 139.667969 132.351562 134.484375 136.726562 128.171875 137.882812 L 128.171875 162.503906 L 207.558594 162.503906 C 208.921875 158.832031 212.460938 156.21875 216.613281 156.21875 C 221.945312 156.21875 226.265625 160.53125 226.265625 165.847656 C 226.265625 167.027344 226.054688 168.15625 225.667969 169.199219 C 224.304688 172.867188 220.765625 175.480469 216.613281 175.480469 C 212.460938 175.480469 208.921875 172.867188 207.558594 169.199219 L 121.460938 169.199219 L 121.460938 137.882812 C 116.523438 136.980469 112.277344 134.105469 109.570312 130.109375 C 106.207031 131.785156 103.160156 133.988281 100.527344 136.613281 C 94.289062 142.835938 90.417969 151.414062 90.417969 160.847656 C 90.417969 167.210938 92.167969 173.175781 95.210938 178.285156 C 96.300781 180.117188 97.558594 181.839844 98.964844 183.433594 C 100.894531 182.75 102.972656 182.375 105.136719 182.375 C 114.15625 182.375 121.65625 188.84375 123.234375 197.386719 L 248.324219 197.386719 L 248.324219 128.863281 C 244.644531 127.507812 242.027344 123.972656 242.027344 119.832031 C 242.027344 114.515625 246.347656 110.199219 251.679688 110.199219 C 257.007812 110.199219 261.332031 114.515625 261.332031 119.832031 C 261.332031 123.972656 258.710938 127.503906 255.035156 128.863281 L 255.035156 162.503906 L 279.539062 162.503906 C 280.902344 158.832031 284.441406 156.21875 288.59375 156.21875 C 293.921875 156.21875 298.246094 160.53125 298.246094 165.851562 C 298.246094 171.167969 293.921875 175.480469 288.59375 175.480469 C 284.441406 175.480469 280.902344 172.867188 279.539062 169.199219 L 255.035156 169.199219 L 255.035156 204.082031 L 123.234375 204.082031 C 121.65625 212.625 114.15625 219.097656 105.136719 219.097656 C 102.082031 219.097656 99.199219 218.351562 96.664062 217.035156 C 96.152344 217.761719 95.667969 218.507812 95.210938 219.273438 C 92.167969 224.382812 90.417969 230.347656 90.417969 236.710938 C 90.417969 246.144531 94.289062 254.722656 100.527344 260.945312 C 103.160156 263.570312 106.207031 265.773438 109.570312 267.449219 C 112.277344 263.453125 116.523438 260.582031 121.460938 259.671875 L 121.460938 228.363281 L 262.570312 228.363281 C 263.933594 224.691406 267.472656 222.078125 271.621094 222.078125 C 275.777344 222.078125 279.316406 224.691406 280.675781 228.363281 C 281.066406 229.40625 281.277344 230.53125 281.277344 231.710938 C 281.277344 232.886719 281.066406 234.011719 280.675781 235.054688 C 279.316406 238.726562 275.777344 241.339844 271.621094 241.339844 C 267.472656 241.339844 263.933594 238.726562 262.570312 235.054688 L 238.003906 235.054688 L 238.003906 274.378906 L 279.539062 274.378906 C 280.902344 270.710938 284.441406 268.097656 288.59375 268.097656 C 293.921875 268.097656 298.246094 272.40625 298.246094 277.726562 C 298.246094 283.042969 293.921875 287.355469 288.59375 287.355469 C 284.441406 287.355469 280.902344 284.742188 279.539062 281.074219 L 231.292969 281.074219 Z M 231.292969 277.722656 " clip-rule="evenodd"/></clipPath><linearGradient x1="1088.807518" gradientTransform="matrix(0.0316153, 0, 0, 0.0315414, 76.996028, 60.456119)" y1="9361.584114" x2="6356.906406" gradientUnits="userSpaceOnUse" y2="-347.950606" id="id9"><stop stop-opacity="1" stop-color="rgb(18.502808%, 37.637329%, 66.957092%)" offset="0"/><stop stop-opacity="1" stop-color="rgb(18.55011%, 37.89978%, 67.13562%)" offset="0.00390625"/><stop stop-opacity="1" stop-color="rgb(18.598938%, 38.163757%, 67.314148%)" offset="0.0078125"/><stop stop-opacity="1" stop-color="rgb(18.64624%, 38.426208%, 67.492676%)" offset="0.0117188"/><stop stop-opacity="1" stop-color="rgb(18.695068%, 38.690186%, 67.671204%)" offset="0.015625"/><stop stop-opacity="1" stop-color="rgb(18.743896%, 38.952637%, 67.849731%)" offset="0.0195313"/><stop stop-opacity="1" stop-color="rgb(18.792725%, 39.215088%, 68.028259%)" offset="0.0234375"/><stop stop-opacity="1" stop-color="rgb(18.840027%, 39.477539%, 68.206787%)" offset="0.0273438"/><stop stop-opacity="1" stop-color="rgb(18.888855%, 39.741516%, 68.385315%)" offset="0.03125"/><stop stop-opacity="1" stop-color="rgb(18.936157%, 40.003967%, 68.563843%)" offset="0.0351563"/><stop stop-opacity="1" stop-color="rgb(18.984985%, 40.267944%, 68.742371%)" offset="0.0390625"/><stop stop-opacity="1" stop-color="rgb(19.032288%, 40.530396%, 68.920898%)" offset="0.0429688"/><stop stop-opacity="1" stop-color="rgb(19.081116%, 40.792847%, 69.099426%)" offset="0.046875"/><stop stop-opacity="1" stop-color="rgb(19.129944%, 41.055298%, 69.277954%)" offset="0.0507813"/><stop stop-opacity="1" stop-color="rgb(19.178772%, 41.319275%, 69.456482%)" offset="0.0546875"/><stop stop-opacity="1" stop-color="rgb(19.226074%, 41.581726%, 69.633484%)" offset="0.0585938"/><stop stop-opacity="1" stop-color="rgb(19.274902%, 41.845703%, 69.812012%)" offset="0.0625"/><stop stop-opacity="1" stop-color="rgb(19.322205%, 42.108154%, 69.99054%)" offset="0.0664063"/><stop stop-opacity="1" stop-color="rgb(19.371033%, 42.370605%, 70.169067%)" offset="0.0703125"/><stop stop-opacity="1" stop-color="rgb(19.419861%, 42.633057%, 70.347595%)" offset="0.0742188"/><stop stop-opacity="1" stop-color="rgb(19.468689%, 42.897034%, 70.526123%)" offset="0.078125"/><stop stop-opacity="1" stop-color="rgb(19.515991%, 43.159485%, 70.704651%)" offset="0.0820313"/><stop stop-opacity="1" stop-color="rgb(19.564819%, 43.423462%, 70.883179%)" offset="0.0859375"/><stop stop-opacity="1" stop-color="rgb(19.612122%, 43.685913%, 71.061707%)" offset="0.0898438"/><stop stop-opacity="1" stop-color="rgb(19.66095%, 43.948364%, 71.240234%)" offset="0.09375"/><stop stop-opacity="1" stop-color="rgb(19.709778%, 44.210815%, 71.418762%)" offset="0.0976563"/><stop stop-opacity="1" stop-color="rgb(19.758606%, 44.474792%, 71.59729%)" offset="0.101563"/><stop stop-opacity="1" stop-color="rgb(19.805908%, 44.737244%, 71.775818%)" offset="0.105469"/><stop stop-opacity="1" stop-color="rgb(19.854736%, 45.001221%, 71.954346%)" offset="0.109375"/><stop stop-opacity="1" stop-color="rgb(19.902039%, 45.263672%, 72.132874%)" offset="0.113281"/><stop stop-opacity="1" stop-color="rgb(19.950867%, 45.527649%, 72.311401%)" offset="0.117188"/><stop stop-opacity="1" stop-color="rgb(19.999695%, 45.7901%, 72.489929%)" offset="0.121094"/><stop stop-opacity="1" stop-color="rgb(20.048523%, 46.052551%, 72.668457%)" offset="0.125"/><stop stop-opacity="1" stop-color="rgb(20.095825%, 46.315002%, 72.845459%)" offset="0.128906"/><stop stop-opacity="1" stop-color="rgb(20.144653%, 46.578979%, 73.023987%)" offset="0.132813"/><stop stop-opacity="1" stop-color="rgb(20.191956%, 46.841431%, 73.202515%)" offset="0.136719"/><stop stop-opacity="1" stop-color="rgb(20.240784%, 47.105408%, 73.381042%)" offset="0.140625"/><stop stop-opacity="1" stop-color="rgb(20.288086%, 47.367859%, 73.55957%)" offset="0.144531"/><stop stop-opacity="1" stop-color="rgb(20.336914%, 47.63031%, 73.738098%)" offset="0.148438"/><stop stop-opacity="1" stop-color="rgb(20.385742%, 47.892761%, 73.916626%)" offset="0.152344"/><stop stop-opacity="1" stop-color="rgb(20.43457%, 48.156738%, 74.095154%)" offset="0.15625"/><stop stop-opacity="1" stop-color="rgb(20.481873%, 48.419189%, 74.273682%)" offset="0.160156"/><stop stop-opacity="1" stop-color="rgb(20.530701%, 48.683167%, 74.452209%)" offset="0.164063"/><stop stop-opacity="1" stop-color="rgb(20.578003%, 48.945618%, 74.630737%)" offset="0.167969"/><stop stop-opacity="1" stop-color="rgb(20.626831%, 49.208069%, 74.809265%)" offset="0.171875"/><stop stop-opacity="1" stop-color="rgb(20.675659%, 49.47052%, 74.987793%)" offset="0.175781"/><stop stop-opacity="1" stop-color="rgb(20.724487%, 49.734497%, 75.166321%)" offset="0.179688"/><stop stop-opacity="1" stop-color="rgb(20.77179%, 49.996948%, 75.344849%)" offset="0.183594"/><stop stop-opacity="1" stop-color="rgb(20.820618%, 50.260925%, 75.523376%)" offset="0.1875"/><stop stop-opacity="1" stop-color="rgb(20.86792%, 50.523376%, 75.701904%)" offset="0.191406"/><stop stop-opacity="1" stop-color="rgb(20.916748%, 50.785828%, 75.880432%)" offset="0.195313"/><stop stop-opacity="1" stop-color="rgb(20.965576%, 51.048279%, 76.057434%)" offset="0.199219"/><stop stop-opacity="1" stop-color="rgb(21.014404%, 51.312256%, 76.235962%)" offset="0.203125"/><stop stop-opacity="1" stop-color="rgb(21.061707%, 51.574707%, 76.41449%)" offset="0.207031"/><stop stop-opacity="1" stop-color="rgb(21.110535%, 51.838684%, 76.593018%)" offset="0.210938"/><stop stop-opacity="1" stop-color="rgb(21.157837%, 52.101135%, 76.771545%)" offset="0.214844"/><stop stop-opacity="1" stop-color="rgb(21.206665%, 52.363586%, 76.950073%)" offset="0.21875"/><stop stop-opacity="1" stop-color="rgb(21.255493%, 52.626038%, 77.128601%)" offset="0.222656"/><stop stop-opacity="1" stop-color="rgb(21.304321%, 52.890015%, 77.307129%)" offset="0.226563"/><stop stop-opacity="1" stop-color="rgb(21.351624%, 53.152466%, 77.485657%)" offset="0.230469"/><stop stop-opacity="1" stop-color="rgb(21.400452%, 53.416443%, 77.664185%)" offset="0.234375"/><stop stop-opacity="1" stop-color="rgb(21.447754%, 53.678894%, 77.842712%)" offset="0.238281"/><stop stop-opacity="1" stop-color="rgb(21.496582%, 53.941345%, 78.02124%)" offset="0.242188"/><stop stop-opacity="1" stop-color="rgb(21.543884%, 54.203796%, 78.199768%)" offset="0.246094"/><stop stop-opacity="1" stop-color="rgb(21.592712%, 54.467773%, 78.378296%)" offset="0.25"/><stop stop-opacity="1" stop-color="rgb(21.620178%, 54.606628%, 78.471375%)" offset="0.257813"/><stop stop-opacity="1" stop-color="rgb(21.673584%, 54.878235%, 78.652954%)" offset="0.265625"/><stop stop-opacity="1" stop-color="rgb(21.723938%, 55.140686%, 78.82843%)" offset="0.273438"/><stop stop-opacity="1" stop-color="rgb(21.775818%, 55.404663%, 79.005432%)" offset="0.28125"/><stop stop-opacity="1" stop-color="rgb(21.826172%, 55.667114%, 79.182434%)" offset="0.289063"/><stop stop-opacity="1" stop-color="rgb(21.878052%, 55.931091%, 79.35791%)" offset="0.296875"/><stop stop-opacity="1" stop-color="rgb(21.929932%, 56.193542%, 79.534912%)" offset="0.302121"/><stop stop-opacity="1" stop-color="rgb(21.955872%, 56.324768%, 79.623413%)" offset="0.304688"/><stop stop-opacity="1" stop-color="rgb(21.980286%, 56.455994%, 79.710388%)" offset="0.3125"/><stop stop-opacity="1" stop-color="rgb(22.032166%, 56.719971%, 79.88739%)" offset="0.320313"/><stop stop-opacity="1" stop-color="rgb(22.084045%, 56.982422%, 80.062866%)" offset="0.328125"/><stop stop-opacity="1" stop-color="rgb(22.134399%, 57.246399%, 80.239868%)" offset="0.335938"/><stop stop-opacity="1" stop-color="rgb(22.186279%, 57.50885%, 80.415344%)" offset="0.34375"/><stop stop-opacity="1" stop-color="rgb(22.236633%, 57.772827%, 80.592346%)" offset="0.351563"/><stop stop-opacity="1" stop-color="rgb(22.288513%, 58.035278%, 80.767822%)" offset="0.359375"/><stop stop-opacity="1" stop-color="rgb(22.340393%, 58.299255%, 80.944824%)" offset="0.367188"/><stop stop-opacity="1" stop-color="rgb(22.390747%, 58.561707%, 81.1203%)" offset="0.375"/><stop stop-opacity="1" stop-color="rgb(22.442627%, 58.825684%, 81.297302%)" offset="0.382813"/><stop stop-opacity="1" stop-color="rgb(22.494507%, 59.088135%, 81.474304%)" offset="0.390625"/><stop stop-opacity="1" stop-color="rgb(22.544861%, 59.350586%, 81.64978%)" offset="0.398438"/><stop stop-opacity="1" stop-color="rgb(22.596741%, 59.614563%, 81.826782%)" offset="0.40625"/><stop stop-opacity="1" stop-color="rgb(22.647095%, 59.877014%, 82.002258%)" offset="0.414063"/><stop stop-opacity="1" stop-color="rgb(22.698975%, 60.140991%, 82.17926%)" offset="0.421875"/><stop stop-opacity="1" stop-color="rgb(22.750854%, 60.403442%, 82.354736%)" offset="0.429688"/><stop stop-opacity="1" stop-color="rgb(22.801208%, 60.667419%, 82.531738%)" offset="0.4375"/><stop stop-opacity="1" stop-color="rgb(22.853088%, 60.929871%, 82.707214%)" offset="0.445313"/><stop stop-opacity="1" stop-color="rgb(22.904968%, 61.193848%, 82.884216%)" offset="0.453125"/><stop stop-opacity="1" stop-color="rgb(22.955322%, 61.456299%, 83.059692%)" offset="0.460938"/><stop stop-opacity="1" stop-color="rgb(23.007202%, 61.71875%, 83.236694%)" offset="0.46875"/><stop stop-opacity="1" stop-color="rgb(23.057556%, 61.982727%, 83.413696%)" offset="0.476563"/><stop stop-opacity="1" stop-color="rgb(23.109436%, 62.245178%, 83.589172%)" offset="0.484375"/><stop stop-opacity="1" stop-color="rgb(23.161316%, 62.509155%, 83.766174%)" offset="0.492188"/><stop stop-opacity="1" stop-color="rgb(23.21167%, 62.771606%, 83.94165%)" offset="0.5"/><stop stop-opacity="1" stop-color="rgb(23.26355%, 63.035583%, 84.118652%)" offset="0.507813"/><stop stop-opacity="1" stop-color="rgb(23.31543%, 63.298035%, 84.294128%)" offset="0.515625"/><stop stop-opacity="1" stop-color="rgb(23.365784%, 63.562012%, 84.47113%)" offset="0.523438"/><stop stop-opacity="1" stop-color="rgb(23.417664%, 63.824463%, 84.646606%)" offset="0.53125"/><stop stop-opacity="1" stop-color="rgb(23.468018%, 64.08844%, 84.823608%)" offset="0.539063"/><stop stop-opacity="1" stop-color="rgb(23.519897%, 64.350891%, 84.999084%)" offset="0.546875"/><stop stop-opacity="1" stop-color="rgb(23.571777%, 64.613342%, 85.176086%)" offset="0.554688"/><stop stop-opacity="1" stop-color="rgb(23.622131%, 64.877319%, 85.351562%)" offset="0.5625"/><stop stop-opacity="1" stop-color="rgb(23.674011%, 65.139771%, 85.528564%)" offset="0.570312"/><stop stop-opacity="1" stop-color="rgb(23.725891%, 65.403748%, 85.705566%)" offset="0.578125"/><stop stop-opacity="1" stop-color="rgb(23.776245%, 65.666199%, 85.881042%)" offset="0.585938"/><stop stop-opacity="1" stop-color="rgb(23.828125%, 65.930176%, 86.058044%)" offset="0.59375"/><stop stop-opacity="1" stop-color="rgb(23.880005%, 66.192627%, 86.233521%)" offset="0.601563"/><stop stop-opacity="1" stop-color="rgb(23.930359%, 66.456604%, 86.410522%)" offset="0.609375"/><stop stop-opacity="1" stop-color="rgb(23.982239%, 66.719055%, 86.585999%)" offset="0.617188"/><stop stop-opacity="1" stop-color="rgb(24.032593%, 66.981506%, 86.763%)" offset="0.625"/><stop stop-opacity="1" stop-color="rgb(24.084473%, 67.245483%, 86.938477%)" offset="0.632813"/><stop stop-opacity="1" stop-color="rgb(24.136353%, 67.507935%, 87.115479%)" offset="0.640625"/><stop stop-opacity="1" stop-color="rgb(24.186707%, 67.771912%, 87.290955%)" offset="0.648438"/><stop stop-opacity="1" stop-color="rgb(24.238586%, 68.034363%, 87.467957%)" offset="0.65625"/><stop stop-opacity="1" stop-color="rgb(24.290466%, 68.29834%, 87.644958%)" offset="0.664063"/><stop stop-opacity="1" stop-color="rgb(24.34082%, 68.560791%, 87.820435%)" offset="0.671875"/><stop stop-opacity="1" stop-color="rgb(24.3927%, 68.824768%, 87.997437%)" offset="0.679688"/><stop stop-opacity="1" stop-color="rgb(24.443054%, 69.087219%, 88.172913%)" offset="0.6875"/><stop stop-opacity="1" stop-color="rgb(24.494934%, 69.34967%, 88.349915%)" offset="0.695312"/><stop stop-opacity="1" stop-color="rgb(24.546814%, 69.613647%, 88.525391%)" offset="0.697879"/><stop stop-opacity="1" stop-color="rgb(24.572754%, 69.744873%, 88.613892%)" offset="0.703125"/><stop stop-opacity="1" stop-color="rgb(24.597168%, 69.876099%, 88.702393%)" offset="0.710938"/><stop stop-opacity="1" stop-color="rgb(24.649048%, 70.140076%, 88.877869%)" offset="0.71875"/><stop stop-opacity="1" stop-color="rgb(24.700928%, 70.402527%, 89.054871%)" offset="0.726563"/><stop stop-opacity="1" stop-color="rgb(24.751282%, 70.666504%, 89.230347%)" offset="0.734375"/><stop stop-opacity="1" stop-color="rgb(24.803162%, 70.928955%, 89.407349%)" offset="0.742188"/><stop stop-opacity="1" stop-color="rgb(24.853516%, 71.192932%, 89.582825%)" offset="0.75"/><stop stop-opacity="1" stop-color="rgb(24.905396%, 71.455383%, 89.759827%)" offset="0.757813"/><stop stop-opacity="1" stop-color="rgb(24.957275%, 71.71936%, 89.936829%)" offset="0.765625"/><stop stop-opacity="1" stop-color="rgb(25.007629%, 71.981812%, 90.112305%)" offset="0.773438"/><stop stop-opacity="1" stop-color="rgb(25.059509%, 72.244263%, 90.289307%)" offset="0.78125"/><stop stop-opacity="1" stop-color="rgb(25.111389%, 72.50824%, 90.464783%)" offset="0.789063"/><stop stop-opacity="1" stop-color="rgb(25.161743%, 72.770691%, 90.641785%)" offset="0.796875"/><stop stop-opacity="1" stop-color="rgb(25.213623%, 73.034668%, 90.817261%)" offset="0.804688"/><stop stop-opacity="1" stop-color="rgb(25.263977%, 73.297119%, 90.994263%)" offset="0.8125"/><stop stop-opacity="1" stop-color="rgb(25.315857%, 73.561096%, 91.169739%)" offset="0.820312"/><stop stop-opacity="1" stop-color="rgb(25.367737%, 73.823547%, 91.346741%)" offset="0.828125"/><stop stop-opacity="1" stop-color="rgb(25.418091%, 74.087524%, 91.522217%)" offset="0.835938"/><stop stop-opacity="1" stop-color="rgb(25.469971%, 74.349976%, 91.699219%)" offset="0.84375"/><stop stop-opacity="1" stop-color="rgb(25.497437%, 74.490356%, 91.793823%)" offset="0.875"/><stop stop-opacity="1" stop-color="rgb(25.498962%, 74.499512%, 91.799927%)" offset="1"/></linearGradient></defs><rect x="-37.5" width="450" fill="rgb(100%, 100%, 100%)" y="-37.499999" height="449.999989" fill-opacity="1"/><rect x="-37.5" width="450" fill="rgb(93.728638%, 93.728638%, 93.728638%)" y="-37.499999" height="449.999989" fill-opacity="1"/><rect x="-37.5" width="450" fill="rgb(100%, 100%, 100%)" y="-37.499999" height="449.999989" fill-opacity="1"/><rect x="-37.5" width="450" fill="rgb(93.728638%, 93.728638%, 93.728638%)" y="-37.499999" height="449.999989" fill-opacity="1"/><g clip-path="url(#id2)"><path fill="url(#id3)" d="M 0.265625 0.265625 L 0.265625 374.734375 L 374.734375 374.734375 L 374.734375 0.265625 Z M 0.265625 0.265625 " fill-rule="nonzero"/></g><path stroke-linecap="butt" transform="matrix(0.119959, 0, 0, 0.119959, 0.0000045, 0)" fill="none" stroke-linejoin="miter" d="M 2.214269 2.214307 L 3123.865984 2.214307 L 3123.865984 3123.866022 L 2.214269 3123.866022 Z M 2.214269 2.214307 " stroke="rgb(19.999695%, 17.248535%, 16.859436%)" stroke-width="4.41" stroke-opacity="1" stroke-miterlimit="22.926001"/><g mask="url(#id4)"><g transform="matrix(1, 0, 0, 1, 0, 0)"><g clip-path="url(#id6)"><path fill="rgb(60.389709%, 65.489197%, 69.799805%)" d="M 289.515625 161.601562 C 292.144531 161.601562 287.660156 163.460938 289.515625 161.601562 C 289.519531 161.601562 289.515625 161.601562 289.515625 161.601562 Z M 289.515625 161.601562 " fill-opacity="1" fill-rule="nonzero"/><g clip-path="url(#id5)"><path fill="rgb(60.389709%, 65.489197%, 69.799805%)" d="M 352.15625 160.972656 C 353.570312 160.816406 354.984375 160.898438 356.082031 160.972656 C 356.394531 162.386719 352.625 170.707031 346.113281 175.414062 C 348.003906 175.617188 348.964844 175.992188 349.945312 176.296875 C 350.105469 176.265625 350.265625 176.234375 350.429688 176.203125 C 350.363281 176.261719 350.292969 176.320312 350.226562 176.378906 C 350.292969 176.398438 350.359375 176.417969 350.429688 176.433594 C 349.40625 179.261719 337.949219 191.425781 335.203125 191.660156 C 337.320312 192.046875 341.332031 192.789062 342.660156 193.703125 C 343.914062 194.566406 332.0625 205.550781 323.820312 206.652344 C 326.320312 207.746094 333.046875 208.707031 332.84375 209.714844 C 332.691406 210.734375 322.957031 220.152344 315.183594 220.230469 C 317.304688 222.347656 321.542969 222.035156 322.40625 223.761719 C 323.269531 225.488281 310.789062 232.472656 302.078125 233.570312 C 302.386719 234.671875 307.34375 235.695312 309.140625 236.476562 C 310.945312 237.261719 303.804688 245.503906 289.910156 244.558594 C 290.929688 246.132812 294.386719 247.777344 294.777344 248.722656 C 295.5625 250.445312 288.496094 253.898438 277.980469 255.859375 C 279.3125 257.589844 283.238281 256.960938 282.925781 259.078125 C 282.609375 261.199219 273.503906 266.0625 264.164062 265.910156 C 264.636719 267.242188 266.597656 268.421875 266.519531 270.066406 C 266.453125 271.484375 257.800781 273.308594 252.683594 275.085938 C 252.761719 275.644531 252.125 276.34375 251.6875 277.105469 C 251.984375 277.300781 252.257812 277.476562 252.453125 277.722656 C 258.179688 274.53125 262.617188 273.363281 262.984375 274.542969 C 263.222656 275.25 262.125 277.523438 262.359375 278.777344 C 268.855469 272.285156 276.273438 273.089844 275.582031 274.464844 C 275.597656 274.464844 275.609375 274.460938 275.625 274.460938 C 275.609375 274.46875 275.59375 274.476562 275.574219 274.484375 C 274.964844 275.703125 273.039062 278.25 273.347656 278.9375 C 278.214844 275.640625 287.632812 273.675781 287.949219 274.933594 C 288.261719 276.1875 285.984375 277.917969 285.828125 279.957031 C 289.832031 276.582031 298.859375 277.054688 299.40625 277.523438 C 299.957031 277.917969 296.976562 281.367188 296.191406 283.019531 C 300.820312 279.957031 311.652344 280.269531 311.417969 281.289062 C 311.105469 282.3125 309.613281 284.195312 308.515625 285.609375 C 309.925781 284.507812 321.074219 285.609375 322.878906 286.628906 C 322.40625 287.257812 322.171875 287.964844 321.152344 289.0625 C 326.488281 288.589844 332.0625 291.101562 332.53125 291.964844 C 332.519531 291.980469 332.503906 291.996094 332.492188 292.011719 C 332.53125 292.023438 332.570312 292.03125 332.613281 292.042969 C 332.546875 292.054688 332.492188 292.066406 332.433594 292.078125 C 331.964844 292.597656 331.304688 293.179688 330.570312 293.691406 C 334.632812 293.925781 353.453125 297.890625 356.429688 300.171875 C 356.46875 300.183594 356.507812 300.195312 356.550781 300.207031 C 356.511719 300.214844 356.476562 300.222656 356.4375 300.234375 C 353.414062 302.429688 334.476562 305.699219 330.332031 305.777344 C 331.121094 306.328125 331.824219 306.957031 332.296875 307.503906 C 331.746094 308.289062 326.097656 310.644531 320.757812 310.015625 C 321.679688 311.082031 321.898438 311.695312 322.277344 312.324219 C 322.347656 312.367188 322.414062 312.40625 322.484375 312.449219 C 322.4375 312.445312 322.394531 312.441406 322.351562 312.4375 C 322.367188 312.46875 322.386719 312.5 322.40625 312.527344 C 320.601562 313.550781 309.375 314.257812 307.960938 313.078125 C 308.355469 313.582031 310.90625 316.945312 310.707031 317.546875 C 310.707031 317.546875 310.710938 317.550781 310.710938 317.550781 C 310.707031 317.550781 310.707031 317.550781 310.707031 317.550781 C 310.386719 318.484375 299.996094 318.332031 295.5625 315.195312 C 296.34375 316.914062 299.339844 320.617188 298.582031 320.867188 C 298.597656 320.890625 298.609375 320.90625 298.621094 320.925781 C 298.597656 320.914062 298.574219 320.898438 298.546875 320.886719 C 297.484375 321.324219 288.859375 321.375 285.121094 317.945312 C 285.199219 319.984375 287.476562 321.796875 287.082031 323.046875 C 286.769531 324.300781 277.351562 322.023438 272.640625 318.574219 C 272.25 319.199219 274.210938 321.945312 274.761719 323.203125 C 275.3125 324.382812 268.007812 325.164062 261.652344 318.335938 C 261.417969 319.511719 262.359375 321.945312 262.125 322.574219 C 261.730469 323.828125 256.707031 322.261719 250.507812 318.335938 C 250.351562 319.808594 252.5625 321.277344 251.492188 322.144531 C 251.503906 322.160156 251.515625 322.167969 251.527344 322.183594 C 251.507812 322.175781 251.488281 322.167969 251.472656 322.164062 C 250.085938 323.085938 243.4375 321.085938 239.125 316.921875 C 238.898438 317.605469 239.039062 318.535156 238.835938 319.292969 C 238.855469 319.3125 238.871094 319.335938 238.890625 319.355469 C 238.867188 319.347656 238.847656 319.339844 238.824219 319.328125 C 238.527344 320.414062 238.007812 320.308594 236.601562 319.738281 C 236.222656 320.203125 234.847656 320.835938 234.492188 321.476562 C 240.652344 321.019531 244.304688 324.75 243.238281 325.214844 C 243.253906 325.226562 243.269531 325.234375 243.285156 325.242188 C 243.253906 325.238281 243.21875 325.238281 243.1875 325.238281 C 242.226562 325.609375 240.21875 325.984375 240.144531 326.5 C 244.148438 326.972656 249.878906 330.1875 249.484375 330.972656 C 249.09375 331.757812 247.128906 331.601562 246.113281 332.621094 C 249.722656 332.621094 254.195312 337.015625 254.273438 337.488281 C 254.351562 337.957031 251.292969 338.429688 250.113281 338.902344 C 253.792969 339.359375 259.53125 344.46875 258.726562 344.929688 C 258.734375 344.933594 258.742188 344.9375 258.75 344.941406 C 258.734375 344.941406 258.71875 344.941406 258.703125 344.941406 C 258.050781 345.296875 256.472656 345.585938 255.371094 345.808594 C 256.628906 345.886719 261.886719 351.457031 262.359375 352.792969 C 262.320312 352.800781 262.289062 352.8125 262.25 352.824219 C 262.261719 352.839844 262.273438 352.855469 262.28125 352.871094 C 261.585938 352.980469 261.464844 353.179688 260.394531 353.261719 C 263.382812 355.460938 265.105469 359.226562 264.949219 359.933594 C 264.480469 359.933594 263.851562 360.011719 263.144531 359.933594 C 265.195312 361.910156 273.195312 372.496094 273.660156 375.003906 C 271.148438 374.84375 259.769531 367.9375 257.570312 366.132812 C 257.726562 366.761719 257.726562 367.390625 257.804688 367.9375 C 257.179688 368.175781 253.175781 366.839844 250.742188 364.09375 C 250.742188 365.113281 250.585938 365.585938 250.507812 366.132812 C 250.484375 366.128906 250.453125 366.117188 250.429688 366.109375 L 250.429688 366.132812 C 245.636719 363.339844 242.953125 360.628906 242.816406 359.933594 C 242.734375 361.113281 242.578125 362.835938 242.265625 363.464844 C 241.949219 364.09375 236.300781 359.148438 235.433594 355.460938 C 235.042969 356.636719 234.964844 359.777344 234.496094 359.777344 C 234.023438 359.777344 229.234375 355.773438 228.84375 352.164062 C 227.976562 353.261719 228.292969 355.144531 227.585938 355.617188 C 226.878906 356.089844 223.035156 350.671875 222.089844 346.746094 C 221.621094 346.90625 221.386719 349.261719 221.148438 350.121094 C 220.914062 350.988281 216.753906 348.082031 216.519531 341.722656 C 215.8125 342.273438 215.261719 343.921875 214.871094 344.160156 C 214.085938 344.628906 212.203125 341.570312 210.789062 336.78125 C 210.148438 337.421875 210.449219 340.957031 208.285156 338.144531 C 208.28125 338.214844 208.277344 338.28125 208.277344 338.351562 C 207.757812 337.261719 205.882812 334.769531 205.527344 330.972656 C 204.671875 331.464844 203.976562 333.296875 202.949219 331.304688 C 202.945312 331.378906 202.941406 331.449219 202.941406 331.519531 C 202.148438 330.074219 201.363281 327.042969 200.269531 325.164062 C 199.644531 325.636719 199.875 326.34375 199.015625 326.34375 C 197.285156 326.265625 196.65625 318.101562 196.425781 317.082031 C 195.699219 317.808594 195.253906 319.035156 194.707031 318.546875 C 194.703125 318.554688 194.699219 318.5625 194.695312 318.574219 C 193.390625 316.707031 193.621094 317.367188 192.980469 314.460938 C 191.742188 310.617188 190.230469 304.929688 188.84375 300.855469 C 183.765625 342.664062 190.828125 340.410156 189.28125 369.273438 L 185.59375 369.273438 C 186.636719 353.738281 183 334.421875 183 327.363281 C 183 320.582031 184.214844 309.015625 185.007812 302.210938 C 182.023438 309.996094 181.21875 318.851562 179.859375 318.472656 C 179.832031 318.507812 179.808594 318.539062 179.785156 318.574219 C 179.746094 318.511719 179.71875 318.453125 179.683594 318.398438 C 179.351562 318.179688 179.203125 317.601562 178.527344 316.921875 C 178.238281 318.164062 177.667969 326.570312 175.722656 326.164062 C 175.714844 326.199219 175.707031 326.230469 175.699219 326.265625 C 175.691406 326.226562 175.679688 326.191406 175.664062 326.152344 C 175.121094 326.015625 175.234375 325.421875 174.679688 325.007812 C 172.730469 328.214844 172.195312 333.101562 170.550781 331.761719 C 170.515625 331.839844 170.480469 331.914062 170.441406 331.992188 C 170.4375 331.878906 170.433594 331.769531 170.425781 331.65625 C 170.089844 331.347656 169.796875 330.957031 169.421875 330.8125 C 169.039062 334.953125 166.316406 339.351562 165.230469 339.039062 C 165.214844 339.070312 165.199219 339.101562 165.183594 339.132812 C 165.183594 339.097656 165.179688 339.058594 165.179688 339.023438 C 164.5625 338.785156 164.871094 337.261719 164.160156 336.621094 C 162.515625 341.488281 160.628906 344.550781 159.84375 344.160156 C 159.453125 343.921875 158.824219 342.273438 158.195312 341.722656 C 157.960938 348.160156 153.878906 350.988281 153.566406 350.121094 C 153.332031 349.257812 153.09375 346.90625 152.625 346.746094 C 151.679688 350.671875 147.914062 356.089844 147.128906 355.613281 C 146.34375 355.144531 146.738281 353.183594 145.871094 352.164062 C 145.480469 355.695312 140.691406 359.699219 140.222656 359.777344 C 139.75 359.777344 139.59375 356.714844 139.28125 355.460938 C 138.4375 359.0625 132.742188 364.257812 132.398438 363.347656 C 132.390625 363.363281 132.382812 363.375 132.371094 363.386719 C 132.375 363.359375 132.378906 363.332031 132.382812 363.308594 C 132.113281 362.59375 131.972656 361.09375 131.902344 359.933594 C 131.667969 361.191406 125.542969 365.820312 124.207031 366.132812 C 124.203125 366.097656 124.199219 366.058594 124.191406 366.023438 C 124.171875 366.035156 124.152344 366.042969 124.128906 366.054688 C 124.023438 364.800781 123.972656 364.8125 123.972656 364.09375 C 121.460938 366.839844 117.539062 368.175781 116.910156 367.9375 C 116.910156 367.46875 116.988281 366.839844 117.144531 366.132812 C 114.945312 367.9375 103.566406 374.84375 101.054688 375.003906 C 101.0625 374.957031 101.078125 374.90625 101.089844 374.859375 C 101 374.90625 100.914062 374.957031 100.816406 375.003906 C 101.003906 374.738281 107 364.324219 111.570312 359.933594 C 111.015625 360.003906 110.394531 360.011719 109.933594 359.957031 C 109.832031 359.972656 109.722656 359.992188 109.609375 360.011719 C 109.808594 358.914062 111.476562 355.355469 114.320312 353.261719 C 113.074219 353.164062 113.269531 352.957031 112.199219 352.871094 C 113.472656 350.753906 118.167969 345.882812 119.34375 345.804688 C 118.199219 345.578125 116.613281 345.273438 115.949219 344.898438 C 115.875 344.914062 115.804688 344.925781 115.730469 344.941406 C 115.773438 344.902344 115.820312 344.867188 115.863281 344.828125 C 115.578125 344.25 120.839844 339.4375 124.601562 338.902344 C 123.472656 338.449219 120.609375 337.996094 120.449219 337.546875 C 120.394531 337.550781 120.339844 337.558594 120.28125 337.566406 C 120.34375 337.519531 120.402344 337.476562 120.460938 337.433594 C 120.792969 336.753906 125.105469 332.699219 128.601562 332.621094 C 127.683594 331.703125 125.796875 331.753906 125.269531 331.023438 C 125.203125 331.035156 125.140625 331.039062 125.074219 331.050781 C 125.121094 331.011719 125.171875 330.976562 125.222656 330.941406 C 124.984375 330.105469 130.617188 326.964844 134.570312 326.5 C 134.417969 326.042969 132.257812 325.582031 131.417969 325.195312 C 131.351562 325.21875 131.285156 325.242188 131.195312 325.242188 C 131.230469 325.210938 131.265625 325.175781 131.324219 325.144531 C 130.578125 324.671875 133.867188 321.011719 140.222656 321.476562 C 139.777344 320.808594 138.347656 320.070312 138.0625 319.660156 C 136.558594 320.292969 135.976562 320.464844 135.652344 319.328125 C 135.632812 319.339844 135.609375 319.347656 135.589844 319.355469 C 135.609375 319.335938 135.625 319.316406 135.644531 319.292969 C 135.441406 318.535156 135.582031 317.605469 135.355469 316.921875 C 130.757812 321.363281 123.925781 323.082031 123.007812 322.160156 C 122.988281 322.167969 122.96875 322.175781 122.953125 322.183594 C 122.964844 322.167969 122.976562 322.160156 122.988281 322.144531 C 121.917969 321.277344 124.128906 319.808594 123.972656 318.335938 C 117.769531 322.261719 112.746094 323.828125 112.355469 322.574219 C 112.121094 321.945312 113.0625 319.515625 112.828125 318.335938 C 106.695312 324.921875 99.691406 324.429688 99.691406 323.324219 C 99.691406 322.824219 102.273438 319.269531 101.835938 318.574219 C 97.128906 322.023438 87.710938 324.300781 87.394531 323.046875 C 87.003906 321.792969 89.277344 319.988281 89.355469 317.945312 C 85.621094 321.375 76.996094 321.328125 75.933594 320.886719 C 75.90625 320.902344 75.882812 320.914062 75.855469 320.925781 C 75.867188 320.90625 75.882812 320.890625 75.898438 320.871094 C 75.191406 320.515625 78.117188 316.960938 78.917969 315.199219 C 74.484375 318.332031 64.09375 318.488281 63.773438 317.550781 C 63.765625 317.550781 63.769531 317.546875 63.773438 317.546875 C 63.570312 316.949219 66.128906 313.574219 66.515625 313.078125 C 65.136719 314.226562 54.402344 313.582031 52.21875 312.597656 C 52.171875 312.601562 52.121094 312.605469 52.074219 312.609375 C 52.097656 312.59375 52.121094 312.578125 52.144531 312.566406 C 52.121094 312.550781 52.09375 312.542969 52.074219 312.527344 C 52.542969 311.820312 52.699219 311.195312 53.71875 310.015625 C 48.382812 310.644531 42.730469 308.292969 42.179688 307.507812 C 42.652344 306.957031 43.359375 306.328125 44.144531 305.78125 C 40 305.703125 21.070312 302.433594 18.042969 300.234375 C 18.003906 300.226562 17.96875 300.214844 17.925781 300.207031 C 17.96875 300.195312 18.011719 300.183594 18.050781 300.171875 C 21.023438 297.890625 39.847656 293.925781 43.90625 293.695312 C 43.175781 293.179688 42.515625 292.601562 42.046875 292.078125 C 41.988281 292.066406 41.929688 292.054688 41.867188 292.042969 C 41.910156 292.03125 41.949219 292.023438 41.988281 292.011719 C 41.972656 291.996094 41.957031 291.980469 41.949219 291.96875 C 42.417969 291.101562 47.992188 288.589844 53.328125 289.0625 C 52.304688 287.957031 52.0625 287.238281 51.601562 286.628906 C 53.40625 285.609375 64.554688 284.507812 65.964844 285.609375 C 64.867188 284.195312 63.375 282.3125 63.058594 281.292969 C 62.828125 280.273438 73.660156 279.957031 78.289062 283.019531 C 77.503906 281.371094 74.519531 277.917969 75.074219 277.523438 C 75.621094 277.054688 84.644531 276.582031 88.648438 279.957031 C 88.492188 277.917969 86.21875 276.191406 86.53125 274.933594 C 86.84375 273.679688 96.265625 275.640625 101.132812 278.9375 C 101.4375 278.25 99.527344 275.722656 98.910156 274.496094 C 98.890625 274.488281 98.875 274.472656 98.855469 274.464844 C 98.867188 274.460938 98.882812 274.460938 98.894531 274.460938 C 98.222656 273.121094 105.578125 272.242188 112.121094 278.78125 C 112.332031 277.644531 111.457031 275.683594 111.457031 274.789062 C 111.457031 272.460938 119.433594 276.285156 121.925781 277.667969 C 122.125 277.402344 122.417969 277.222656 122.738281 277.011719 C 122.289062 276.265625 121.6875 275.582031 121.808594 275.039062 C 116.695312 273.25 107.949219 271.414062 107.882812 269.988281 C 107.804688 268.34375 109.6875 267.167969 110.234375 265.832031 C 100.894531 265.90625 91.789062 261.121094 91.476562 259 C 91.164062 256.882812 95.085938 257.511719 96.421875 255.785156 C 85.828125 253.820312 78.761719 250.371094 79.542969 248.644531 C 79.9375 247.699219 83.46875 246.054688 84.414062 244.480469 C 70.519531 245.425781 63.375 237.183594 65.179688 236.398438 C 66.984375 235.613281 71.929688 234.59375 72.246094 233.492188 C 63.613281 232.394531 51.050781 225.410156 51.917969 223.683594 C 52.703125 222.035156 57.019531 222.273438 59.136719 220.152344 C 51.367188 220.074219 41.632812 210.65625 41.476562 209.636719 C 41.242188 208.617188 47.992188 207.671875 50.503906 206.574219 C 42.339844 205.476562 30.410156 194.488281 31.664062 193.625 C 32.921875 192.761719 36.53125 192.054688 39.121094 191.582031 C 36.371094 191.429688 24.832031 179.261719 23.894531 176.359375 C 25.070312 176.125 26.011719 175.574219 28.210938 175.339844 C 21.695312 170.628906 17.925781 162.308594 18.242188 160.898438 C 18.304688 160.894531 18.375 160.886719 18.4375 160.882812 C 18.425781 160.863281 18.410156 160.839844 18.398438 160.820312 C 18.433594 160.839844 18.464844 160.859375 18.496094 160.878906 C 19.554688 160.808594 20.859375 160.75 22.167969 160.898438 C 17.691406 156.578125 0.265625 133.507812 -0.675781 128.167969 C -0.621094 128.171875 -0.5625 128.179688 -0.507812 128.1875 C -0.511719 128.183594 -0.515625 128.175781 -0.519531 128.167969 C -0.507812 128.175781 -0.496094 128.183594 -0.484375 128.191406 C 5.363281 128.890625 29.597656 143.519531 34.253906 147.476562 C 33.941406 146.144531 33.863281 144.730469 33.78125 143.632812 C 35.195312 143.160156 43.832031 146.0625 49.246094 152.03125 C 49.246094 149.753906 49.71875 148.8125 49.875 147.632812 C 49.925781 147.644531 49.984375 147.660156 50.046875 147.675781 C 50.042969 147.660156 50.039062 147.648438 50.03125 147.632812 C 50.050781 147.652344 50.070312 147.671875 50.089844 147.691406 C 53.441406 148.707031 66.210938 158.523438 66.675781 161.132812 C 66.90625 158.542969 67.222656 154.855469 67.929688 153.519531 C 68.636719 152.183594 80.800781 162.859375 82.761719 170.945312 C 83.574219 168.1875 83.78125 161.269531 84.960938 161.625 C 84.960938 161.617188 84.960938 161.609375 84.960938 161.601562 C 84.964844 161.609375 84.96875 161.617188 84.96875 161.625 C 86.417969 162.050781 96.363281 170.480469 97.207031 178.085938 C 99.089844 175.730469 98.464844 171.492188 100.03125 170.472656 C 101.605469 169.453125 109.925781 181.148438 111.886719 189.699219 C 112.90625 189.308594 113.375 184.285156 114.003906 182.402344 C 114.632812 180.519531 123.582031 186.796875 124.054688 200.6875 C 125.542969 199.589844 126.71875 195.976562 127.664062 195.429688 C 129.3125 194.488281 133.472656 201.082031 136.53125 211.441406 C 138.09375 209.957031 137.125 205.84375 139.28125 206.277344 L 139.28125 206.261719 L 139.289062 206.277344 C 141.472656 206.648438 147.0625 215.09375 147.914062 224.234375 C 149.171875 223.527344 150.113281 221.484375 151.761719 221.40625 C 152.382812 221.378906 153.265625 222.984375 154.25 225.207031 C 154.773438 225.347656 155.363281 225.476562 156.078125 225.332031 C 154.507812 219.996094 147.285156 208.066406 148.621094 206.65625 C 149.957031 205.242188 152.546875 206.101562 154.113281 205.476562 C 146.660156 197.390625 143.675781 185.621094 145.246094 183.65625 C 146.816406 181.695312 149.328125 185.699219 151.917969 185.460938 C 145.246094 174.632812 142.734375 165.761719 144.855469 165.058594 C 146.03125 164.742188 150.113281 166.46875 152.308594 166.074219 C 140.792969 154.945312 141.796875 141.75 144.445312 143.027344 C 144.445312 142.964844 144.453125 142.90625 144.460938 142.847656 C 144.492188 142.933594 144.53125 143.011719 144.570312 143.089844 C 146.824219 144.222656 151.195312 147.445312 152.308594 146.847656 C 146.5625 138.652344 142.449219 121.792969 145.015625 121.304688 C 145.015625 121.292969 145.011719 121.277344 145.011719 121.261719 C 145.019531 121.277344 145.03125 121.285156 145.039062 121.300781 C 147.226562 120.929688 150.289062 124.644531 153.722656 124.871094 C 147.601562 117.964844 148.230469 102.113281 149.011719 101.09375 C 149.796875 100.070312 155.84375 105.171875 158.828125 106.585938 C 153.371094 98.636719 153.367188 79.347656 155.457031 79.945312 C 155.453125 79.929688 155.453125 79.917969 155.449219 79.902344 C 155.464844 79.917969 155.472656 79.933594 155.484375 79.953125 C 157.335938 80.476562 160.632812 83.023438 162.984375 84.84375 C 161.023438 82.253906 162.59375 62.632812 164.398438 59.496094 C 164.425781 59.511719 164.453125 59.53125 164.480469 59.546875 C 164.480469 59.53125 164.476562 59.511719 164.476562 59.496094 C 164.492188 59.523438 164.507812 59.550781 164.527344 59.578125 C 165.664062 60.308594 166.824219 60.738281 168.714844 62.476562 C 167.695312 53.058594 172.011719 43.25 173.503906 42.386719 L 173.546875 42.425781 C 173.558594 42.386719 173.570312 42.347656 173.582031 42.308594 C 173.601562 42.378906 173.621094 42.445312 173.640625 42.519531 C 174.488281 43.367188 175.597656 44.496094 176.566406 45.835938 C 176.722656 38.539062 183.238281 5.183594 187.160156 0.0820312 C 187.175781 0.101562 187.191406 0.125 187.207031 0.144531 C 187.21875 0.0976562 187.230469 0.0507812 187.242188 0.00390625 C 187.265625 0.0976562 187.285156 0.191406 187.308594 0.285156 C 191.246094 5.996094 197.527344 38.628906 197.761719 45.835938 C 198.78125 44.425781 199.957031 43.25 200.820312 42.386719 C 202.234375 43.25 206.628906 53.058594 205.609375 62.476562 C 207.527344 60.710938 208.699219 60.296875 209.851562 59.542969 C 209.875 59.5 209.902344 59.460938 209.925781 59.414062 C 209.925781 59.441406 209.925781 59.46875 209.925781 59.496094 C 211.730469 62.632812 213.300781 82.253906 211.339844 84.84375 C 213.816406 82.988281 217.132812 80.367188 218.957031 79.921875 C 218.980469 79.886719 219.007812 79.855469 219.03125 79.820312 C 219.027344 79.851562 219.019531 79.875 219.015625 79.90625 C 220.765625 79.03125 221.109375 98.332031 215.5 106.585938 C 218.351562 105.273438 224.3125 100.25 225.261719 101.046875 C 225.277344 101.039062 225.292969 101.023438 225.308594 101.011719 C 225.300781 101.03125 225.292969 101.046875 225.285156 101.066406 C 226.140625 102.210938 226.675781 118.015625 220.601562 124.871094 C 224.054688 124.71875 227.132812 120.964844 229.320312 121.3125 C 229.34375 121.296875 229.371094 121.277344 229.394531 121.261719 C 229.382812 121.28125 229.375 121.300781 229.363281 121.320312 C 231.808594 121.84375 227.769531 138.558594 222.015625 146.847656 C 223.15625 147.457031 227.691406 144.152344 229.898438 143.023438 C 229.9375 142.964844 229.980469 142.910156 230.019531 142.84375 C 230.019531 142.886719 230.011719 142.929688 230.003906 142.96875 C 232.417969 141.964844 233.582031 154.894531 222.015625 166.074219 C 224.066406 166.457031 228.019531 164.78125 229.34375 165.023438 L 229.394531 164.976562 C 229.386719 164.996094 229.382812 165.015625 229.378906 165.03125 C 231.8125 165.640625 228.707031 175.160156 222.40625 185.460938 C 224.917969 185.621094 227.507812 181.695312 229.078125 183.65625 C 230.648438 185.621094 227.667969 197.390625 220.207031 205.472656 C 221.398438 205.890625 223.125 205.546875 224.507812 205.964844 C 224.515625 205.957031 224.519531 205.953125 224.527344 205.949219 C 224.523438 205.953125 224.523438 205.960938 224.519531 205.96875 C 224.957031 206.101562 225.363281 206.3125 225.703125 206.652344 C 227.117188 208.066406 219.816406 219.996094 218.246094 225.332031 C 219.019531 225.488281 219.648438 225.324219 220.207031 225.171875 C 220.207031 225.171875 220.992188 223.371094 220.992188 223.367188 C 221.152344 223.136719 221.230469 222.976562 221.386719 222.742188 C 221.386719 222.757812 221.386719 222.777344 221.386719 222.792969 C 223.261719 219.566406 224.804688 223.46875 226.488281 224.3125 C 227.308594 214.628906 232.867188 208.171875 233.003906 207.910156 L 233.003906 207.972656 C 237.230469 203.140625 236.375 210.097656 237.871094 211.519531 C 241.078125 200.574219 245.359375 194.238281 246.796875 195.472656 C 246.808594 195.453125 246.8125 195.441406 246.820312 195.429688 L 246.820312 195.484375 C 247.75 196.175781 248.902344 199.546875 250.351562 200.6875 C 250.820312 186.78125 259.832031 180.417969 260.414062 182.460938 C 260.4375 182.441406 260.457031 182.417969 260.476562 182.402344 C 260.460938 182.4375 260.445312 182.46875 260.433594 182.503906 C 261.042969 184.460938 261.515625 189.316406 262.519531 189.699219 C 264.480469 181.144531 272.722656 169.449219 274.371094 170.472656 C 276.019531 171.492188 275.3125 175.730469 277.195312 178.085938 C 278.058594 170.324219 288.410156 161.679688 289.519531 161.601562 C 290.621094 161.523438 290.851562 168.273438 291.640625 170.941406 C 293.601562 162.859375 305.609375 152.261719 306.394531 153.597656 C 306.394531 153.601562 306.398438 153.601562 306.398438 153.605469 C 306.425781 153.578125 306.453125 153.550781 306.476562 153.519531 C 306.464844 153.574219 306.453125 153.628906 306.441406 153.683594 C 307.1875 155.082031 307.421875 158.667969 307.652344 161.210938 C 308.199219 158.539062 321.464844 148.417969 324.449219 147.710938 C 324.480469 147.679688 324.5 147.660156 324.527344 147.632812 C 324.507812 147.695312 324.492188 147.761719 324.472656 147.824219 C 324.710938 148.949219 325.078125 149.902344 325.078125 152.105469 C 330.371094 146.277344 338.730469 143.449219 340.425781 143.6875 C 340.464844 143.671875 340.5 143.648438 340.539062 143.628906 C 340.523438 143.652344 340.507812 143.675781 340.488281 143.699219 C 340.507812 143.703125 340.527344 143.703125 340.539062 143.710938 C 340.460938 144.730469 340.386719 146.140625 340.070312 147.554688 C 344.726562 143.597656 369.039062 128.96875 374.8125 128.269531 C 374.875 128.234375 374.9375 128.203125 375 128.167969 C 374.980469 128.195312 374.960938 128.222656 374.945312 128.253906 C 374.960938 128.253906 374.984375 128.246094 375 128.246094 C 374.058594 133.660156 356.628906 156.734375 352.15625 160.972656 Z M 352.15625 160.972656 " fill-opacity="1" fill-rule="nonzero"/></g></g></g></g><g clip-path="url(#id7)"><g clip-path="url(#id8)"><path fill="url(#id9)" d="M 76.996094 60.457031 L 76.996094 337.101562 L 298.246094 337.101562 L 298.246094 60.457031 Z M 76.996094 60.457031 " fill-rule="nonzero"/></g></g></svg>