<svg version="1.1" id="Layer_1" xmlns="http://www.w3.org/2000/svg" xmlns:xlink="http://www.w3.org/1999/xlink" x="0px" y="0px"
	 width="100%" viewBox="0 0 500 500" enable-background="new 0 0 500 500" xml:space="preserve">
<path fill="#000000" opacity="1.000000" stroke="none" 
	d="
M284.000000,501.000000 
	C189.333359,501.000000 95.166710,501.000000 1.000051,501.000000 
	C1.000034,334.333405 1.000034,167.666794 1.000017,1.000140 
	C167.666565,1.000093 334.333130,1.000093 500.999756,1.000047 
	C500.999847,167.666519 500.999847,334.333038 500.999939,500.999786 
	C428.833344,501.000000 356.666656,501.000000 284.000000,501.000000 
M321.948792,102.501312 
	C321.626068,102.324455 321.303375,102.147598 320.627686,101.387024 
	C314.614868,95.412926 308.685028,89.352417 302.571716,83.482971 
	C290.330109,71.729622 276.373932,62.299366 261.785980,53.745926 
	C255.399887,50.001541 248.449875,49.462795 242.260269,52.961617 
	C232.399384,58.535706 222.588715,64.475281 213.739777,71.498756 
	C200.147156,82.287376 186.827774,93.580048 176.388687,107.676842 
	C170.815216,115.203186 165.176392,122.755959 160.449173,130.814255 
	C155.139145,139.866058 150.823914,149.501404 145.409744,159.219971 
	C144.011337,162.614563 142.612930,166.009140 141.483902,168.749847 
	C138.271667,169.222549 135.560593,169.621490 132.026367,170.095276 
	C127.465569,170.130920 122.847977,169.715103 118.353836,170.280579 
	C99.158531,172.695724 84.166405,182.124390 73.663048,198.363937 
	C62.808399,215.146637 59.071468,234.167480 57.574333,253.640259 
	C56.183018,271.736694 58.391449,289.549805 63.073383,307.148834 
	C68.294235,326.773621 76.304237,345.118774 87.202423,362.150421 
	C99.502602,381.373047 114.741814,398.016632 133.013687,412.632538 
	C134.435562,413.638733 135.857452,414.644928 137.186813,415.828735 
	C137.186813,415.828735 137.328491,415.687195 137.178360,416.397339 
	C141.214233,418.791656 145.250092,421.185974 149.326462,423.633179 
	C149.326462,423.633179 149.391632,423.646820 149.190292,424.363892 
	C158.942673,429.295990 168.462555,434.773834 178.495224,439.048035 
	C200.223618,448.304871 222.962326,452.842834 246.703354,452.063202 
	C253.998734,451.823639 261.319702,452.475403 268.628174,452.453918 
	C270.813141,452.447479 272.995422,451.541931 276.003357,450.929932 
	C277.773224,450.614594 279.539429,450.276917 281.313507,449.987244 
	C315.733978,444.366760 346.665314,431.096924 373.503540,408.516571 
	C393.379883,391.793610 409.939240,372.413055 422.400146,349.586365 
	C432.865570,330.415222 439.485626,309.911011 443.376556,288.490936 
	C444.372650,283.007263 445.873260,277.390350 445.536346,271.933777 
	C444.700806,258.402313 443.623749,244.812088 441.364929,231.461807 
	C438.827240,216.463135 432.935822,202.575790 422.879639,190.827454 
	C408.070831,173.526825 388.171112,168.842209 366.716461,169.470291 
	C361.702026,169.617096 358.873962,169.708313 357.811218,164.476959 
	C357.654480,163.705276 357.127563,163.008789 356.966400,161.453110 
	C356.952179,160.626404 357.202728,159.675980 356.883179,158.991913 
	C353.289093,151.298203 349.632202,143.633270 345.900818,136.005310 
	C345.609436,135.409668 344.632477,135.149414 343.605438,134.152496 
	C339.942047,128.588303 336.278656,123.024117 332.893707,116.720329 
	C332.137543,115.937180 331.381378,115.154022 330.749725,114.229752 
	C330.749725,114.229752 330.582703,114.316475 330.891266,113.634781 
	C329.809937,112.536102 328.728577,111.437424 327.895416,110.202293 
	C327.895416,110.202293 327.627777,110.294891 327.921692,109.604172 
	C326.506561,108.177841 325.091461,106.751511 323.834106,105.006699 
	C323.834106,105.006699 323.648193,105.309792 323.883392,104.581772 
	C323.214722,104.093399 322.546021,103.605019 321.974182,103.084335 
	C321.974182,103.084335 321.872284,103.082291 321.948792,102.501312 
z"/>
<path fill="#F3FDE5" opacity="1.000000" stroke="none" 
	d="
M332.615265,117.459930 
	C336.278656,123.024117 339.942047,128.588303 343.639832,134.820969 
	C348.040131,144.418793 352.406006,153.348145 356.771912,162.277496 
	C357.127563,163.008789 357.654480,163.705276 357.811218,164.476959 
	C358.873962,169.708313 361.702026,169.617096 366.716461,169.470291 
	C388.171112,168.842209 408.070831,173.526825 422.879639,190.827454 
	C432.935822,202.575790 438.827240,216.463135 441.364929,231.461807 
	C443.623749,244.812088 444.700806,258.402313 445.536346,271.933777 
	C445.873260,277.390350 444.372650,283.007263 443.376556,288.490936 
	C439.485626,309.911011 432.865570,330.415222 422.400146,349.586365 
	C409.939240,372.413055 393.379883,391.793610 373.503540,408.516571 
	C346.665314,431.096924 315.733978,444.366760 281.313507,449.987244 
	C279.539429,450.276917 277.773224,450.614594 275.215576,450.853241 
	C265.011139,450.740295 255.592560,450.564789 246.178131,450.693298 
	C214.767303,451.121979 185.720062,442.585083 158.260513,427.843475 
	C155.382660,426.298492 152.351608,425.038849 149.391632,423.646820 
	C149.391632,423.646820 149.326462,423.633179 149.262421,423.274231 
	C145.241745,420.505951 141.285110,418.096588 137.328491,415.687195 
	C137.328491,415.687195 137.186813,415.828735 137.250549,415.403381 
	C135.851288,413.949554 134.388260,412.921112 132.925232,411.892670 
	C114.741814,398.016632 99.502602,381.373047 87.202423,362.150421 
	C76.304237,345.118774 68.294235,326.773621 63.073383,307.148834 
	C58.391449,289.549805 56.183018,271.736694 57.574333,253.640259 
	C59.071468,234.167480 62.808399,215.146637 73.663048,198.363937 
	C84.166405,182.124390 99.158531,172.695724 118.353836,170.280579 
	C122.847977,169.715103 127.465569,170.130920 132.833618,170.208496 
	C142.712601,171.824783 146.353226,168.475815 146.075897,158.882874 
	C150.823914,149.501404 155.139145,139.866058 160.449173,130.814255 
	C165.176392,122.755959 170.815216,115.203186 176.388687,107.676842 
	C186.827774,93.580048 200.147156,82.287376 213.739777,71.498756 
	C222.588715,64.475281 232.399384,58.535706 242.260269,52.961617 
	C248.449875,49.462795 255.399887,50.001541 261.785980,53.745926 
	C276.373932,62.299366 290.330109,71.729622 302.571716,83.482971 
	C308.685028,89.352417 314.614868,95.412926 320.788818,101.967262 
	C321.257385,102.725761 321.564850,102.904030 321.872284,103.082291 
	C321.872284,103.082291 321.974182,103.084335 321.811737,103.432022 
	C322.315582,104.289734 322.981873,104.799767 323.648193,105.309799 
	C323.648193,105.309792 323.834106,105.006699 323.685120,105.508827 
	C324.899994,107.438934 326.263885,108.866913 327.627777,110.294891 
	C327.627777,110.294891 327.895416,110.202293 327.683105,110.609619 
	C328.508118,112.116783 329.545410,113.216629 330.582703,114.316475 
	C330.582703,114.316475 330.749725,114.229752 330.591034,114.626404 
	C331.160004,115.835350 331.887634,116.647644 332.615265,117.459930 
M234.738678,221.304413 
	C234.738678,221.304413 234.810379,221.334518 235.006821,221.851166 
	C235.368362,221.865311 235.729919,221.879440 236.697968,222.202332 
	C240.955017,226.896393 245.140533,231.659454 249.537094,236.218994 
	C250.300720,237.010956 251.955978,236.943176 253.775131,237.192795 
	C253.933929,236.898102 254.092728,236.603409 254.174744,236.161469 
	C254.174744,236.161469 254.300919,236.269455 254.995148,236.379761 
	C261.781738,229.426544 268.568298,222.473312 275.436920,215.453354 
	C275.436920,215.453354 275.524536,215.394058 275.751251,215.512665 
	C275.751251,215.512665 275.994690,215.427948 276.628418,215.132065 
	C278.188599,213.553680 279.748779,211.975311 281.338165,210.328659 
	C281.338165,210.328659 281.377594,210.265732 281.955353,210.339096 
	C282.059998,210.008850 282.164673,209.678604 282.202515,209.149780 
	C282.202515,209.149780 282.321198,209.322464 283.002533,209.548920 
	C284.093140,208.471207 285.183746,207.393494 286.024414,206.032410 
	C286.024414,206.032410 286.290405,206.300705 286.968475,206.520935 
	C288.071198,205.465164 289.173889,204.409393 290.175812,203.231689 
	C290.175812,203.231689 290.318481,203.300095 291.010834,203.495377 
	C293.112305,201.829361 295.213745,200.163361 297.367462,198.420410 
	C297.367462,198.420410 297.425110,198.347412 298.118073,198.522949 
	C301.459656,196.055801 304.801239,193.588669 308.798370,190.912292 
	C311.165863,189.581268 313.533386,188.250259 316.609772,187.045792 
	C316.852203,186.576309 317.094635,186.106812 317.457428,185.427643 
	C317.457428,185.427643 317.674194,185.320587 318.310272,185.786148 
	C324.748291,183.825836 324.994537,183.601837 322.332336,177.759613 
	C318.544952,169.448135 314.552673,161.226471 310.465118,153.057922 
	C309.481537,151.092377 307.778992,149.486618 306.357666,147.677734 
	C306.357666,147.677734 306.354462,147.615692 306.546906,146.968643 
	C305.847717,146.217926 305.148560,145.467194 304.396729,144.658508 
	C304.396729,144.658508 304.368530,144.585480 304.586426,143.952042 
	C303.891602,143.196899 303.196747,142.441742 302.435669,141.619904 
	C302.435669,141.619904 302.382660,141.542313 302.550110,140.874451 
	C301.794373,140.169205 301.038635,139.463974 300.031097,138.998032 
	C300.031097,138.998032 300.270294,138.746750 300.559326,138.073669 
	C299.489777,136.959244 298.420197,135.844803 297.218719,134.790054 
	C297.218719,134.790054 297.306244,134.674713 297.539398,133.997116 
	C296.182037,132.562515 294.824677,131.127899 293.416443,129.613342 
	C293.416443,129.613342 293.371307,129.529999 293.509216,128.850891 
	C291.420959,126.782547 289.332672,124.714203 286.915253,122.401443 
	C286.705109,122.223785 286.523010,122.020950 286.541504,121.069160 
	C283.454254,118.237442 280.367035,115.405731 276.873505,112.378296 
	C276.638123,112.178802 276.467743,111.934074 276.404114,111.054802 
	C276.068085,110.941895 275.732025,110.828987 275.331482,110.665627 
	C275.331482,110.665627 275.268066,110.613815 275.326874,110.043762 
	C274.999664,109.942001 274.672455,109.840240 274.299744,109.699745 
	C274.299744,109.699745 274.280701,109.643074 274.304626,108.958305 
	C272.354980,107.508965 270.405365,106.059616 268.378723,104.582077 
	C268.378723,104.582077 268.321960,104.522896 268.268738,103.853699 
	C266.789185,102.968254 265.309601,102.082802 264.007751,101.058990 
	C264.007751,101.058990 263.818146,101.178955 263.993103,100.475548 
	C261.475220,98.860458 258.957336,97.245369 256.360016,95.595207 
	C256.360016,95.595207 256.286621,95.548767 256.214508,94.874046 
	C255.234741,94.488686 254.254959,94.103325 253.152435,93.847870 
	C253.152435,93.847870 253.225815,93.684898 253.217361,92.957100 
	C251.443771,91.347786 249.918564,91.012955 248.330841,94.008568 
	C237.838913,102.955399 227.347000,111.902229 216.164459,120.945496 
	C214.331100,123.177948 212.497742,125.410408 210.736328,127.754799 
	C210.736328,127.754799 210.614502,127.701271 209.924637,127.589706 
	C208.826035,129.259766 207.727432,130.929825 206.643631,132.670090 
	C206.643631,132.670090 206.572235,132.677094 205.891388,132.658783 
	C204.120697,135.347031 202.349991,138.035263 200.481598,140.990494 
	C200.481598,140.990494 200.478348,141.274780 199.992584,140.947205 
	C197.527435,144.555283 194.808899,148.021240 192.679611,151.817673 
	C191.061478,154.702698 190.192642,158.007996 188.573822,161.697540 
	C188.005783,162.476273 187.253067,163.179169 186.897522,164.045135 
	C181.932236,176.138214 175.751389,187.782089 173.854858,200.988892 
	C172.374420,211.298294 170.536209,221.556320 168.158600,232.378448 
	C168.709656,245.674667 169.260712,258.970886 169.886902,273.057800 
	C170.893066,277.966797 171.899216,282.875763 172.793640,288.634766 
	C175.111008,295.485687 177.428360,302.336578 179.958374,309.065613 
	C179.958374,309.065613 179.741272,309.195007 179.473053,309.951019 
	C181.241989,314.043274 183.010941,318.135529 185.163803,322.832092 
	C187.726700,327.499298 190.289581,332.166504 192.642975,337.554077 
	C193.613815,338.805084 194.584656,340.056061 195.614426,341.342194 
	C195.614426,341.342194 195.627838,341.409454 195.492294,342.113739 
	C197.554825,344.834198 199.617340,347.554657 202.005539,350.044495 
	C202.005539,350.044495 201.681747,350.282898 201.453293,350.959381 
	C202.325485,351.980469 203.197678,353.001587 204.521149,354.293518 
	C204.940094,354.838562 205.359024,355.383575 205.556610,356.620789 
	C206.205902,357.193451 206.855194,357.766113 207.558029,358.413605 
	C207.558029,358.413605 207.590271,358.499786 207.472687,359.158020 
	C208.518387,360.205750 209.564072,361.253479 210.670380,362.336853 
	C210.670380,362.336853 210.711716,362.393738 210.615570,362.900909 
	C210.895798,363.042725 211.176025,363.184509 211.526947,363.412842 
	C211.526947,363.412842 211.598938,363.498322 211.507294,364.168854 
	C217.525208,369.908844 223.543121,375.648804 229.638748,381.404724 
	C229.638748,381.404724 229.710892,381.437805 229.641373,381.977539 
	C229.950424,382.082031 230.259460,382.186523 230.583542,382.387817 
	C230.583542,382.387817 230.616562,382.480011 230.477219,382.785736 
	C230.477219,382.785736 230.660690,383.072357 231.008774,383.674194 
	C236.569489,387.892090 242.212234,392.007721 247.654984,396.372711 
	C250.226425,398.434967 252.139221,397.996277 254.726776,396.299133 
	C275.052094,382.967773 291.983612,366.210785 305.458771,346.033142 
	C322.809113,320.052734 332.859039,291.484436 335.037659,260.242889 
	C335.954529,247.094528 346.743195,238.731598 358.593597,242.034363 
	C368.419312,244.772858 373.020416,252.769119 371.833923,265.757233 
	C367.600372,312.101013 350.281158,352.911591 319.721710,388.039764 
	C315.126160,393.322296 310.241669,398.353424 305.490814,403.500854 
	C305.762115,403.928253 306.033386,404.355652 306.304688,404.783051 
	C315.683777,399.916748 325.413086,395.608673 334.334045,390.012115 
	C341.821594,385.314819 348.366760,379.115417 355.482605,373.503387 
	C355.482605,373.503387 355.579834,373.361542 356.242615,373.366241 
	C362.174866,366.885895 368.107117,360.405518 374.458130,353.404510 
	C383.079193,342.468597 390.043030,330.591003 395.439514,317.726044 
	C406.841919,290.543213 410.524323,262.671722 403.150848,233.841400 
	C399.951324,221.331223 394.605835,210.158508 379.880341,208.247833 
	C375.312561,207.655151 370.443817,208.551559 365.820557,209.372589 
	C351.995422,211.827652 339.542755,217.861694 327.545746,224.877914 
	C310.737823,234.707718 294.881287,245.891617 281.472382,260.090790 
	C276.320038,265.546814 270.212738,270.869415 269.918243,279.393677 
	C269.679108,286.317078 266.209351,291.018402 259.321777,293.925964 
	C251.884338,297.129059 245.028229,295.198730 237.937515,291.342316 
	C237.693497,291.128448 237.506226,290.872986 237.336258,290.008148 
	C237.004913,289.913574 236.673569,289.819000 236.128662,289.816071 
	C236.128662,289.816071 236.315277,289.677582 236.464630,288.940308 
	C235.187714,285.229828 234.044571,281.465363 232.577927,277.831451 
	C231.835815,275.992798 230.509033,274.390076 229.387131,272.638824 
	C229.387131,272.638824 229.367081,272.568939 229.456772,271.886261 
	C228.060837,270.509491 226.664902,269.132690 225.010284,268.000519 
	C225.010284,268.000519 225.262115,267.749573 225.421112,267.045502 
	C222.748016,264.262756 220.074921,261.480011 217.333664,258.647644 
	C217.333664,258.647644 217.266479,258.596710 217.361053,258.062347 
	C217.058167,257.949341 216.755264,257.836304 216.379349,257.619568 
	C216.379349,257.619568 216.267944,257.558777 216.343369,257.018433 
	C216.034363,256.918488 215.725357,256.818573 215.344910,256.653168 
	C215.344910,256.653168 215.260727,256.605225 215.347504,256.030884 
	C215.018127,255.931793 214.688736,255.832703 214.305115,255.692749 
	C214.305115,255.692749 214.263947,255.638779 214.375916,255.070450 
	C214.050247,254.956406 213.724579,254.842361 213.353333,254.642670 
	C213.353333,254.642670 213.291824,254.567642 213.369095,254.047653 
	C213.074173,253.930969 212.779251,253.814285 212.406494,253.594116 
	C212.406494,253.594116 212.294617,253.528885 212.335846,253.011459 
	C212.041428,252.904388 211.747009,252.797333 211.386887,252.640198 
	C211.386887,252.640198 211.337479,252.573975 211.369324,251.921570 
	C210.683197,251.518356 209.997070,251.115158 209.145584,250.841721 
	C209.145584,250.841721 209.270020,250.672318 209.372665,249.978607 
	C207.078354,248.190872 204.784027,246.403137 202.392822,244.537537 
	C202.392822,244.537537 202.278137,244.489563 202.321503,243.991104 
	C202.035004,243.897354 201.748489,243.803604 201.398422,243.615234 
	C201.398422,243.615234 201.312134,243.540741 201.269623,242.873627 
	C199.631287,241.804810 197.992966,240.735992 196.246307,239.726868 
	C196.246307,239.726868 196.296738,239.613922 196.300369,238.933746 
	C194.640884,237.851730 192.981400,236.769714 191.185379,235.859055 
	C191.185379,235.859055 191.273666,235.658524 191.319244,234.953781 
	C184.025375,224.246063 184.305542,217.619400 192.420776,207.716919 
	C192.797256,207.257538 192.866287,206.546173 193.457504,205.385773 
	C194.940460,204.901474 196.423401,204.417175 198.736465,203.864883 
	C204.716721,201.896881 210.208557,203.517624 215.940079,206.745590 
	C217.825470,207.953613 219.710846,209.161621 221.658966,210.367859 
	C221.658966,210.367859 221.678375,210.427536 221.709976,211.099640 
	C223.360062,212.175522 225.010147,213.251404 226.716675,214.330963 
	C226.716675,214.330963 226.748779,214.377533 226.748550,215.026917 
	C227.130264,215.115555 227.511993,215.204193 228.258820,215.466522 
	C228.481369,215.636276 228.632111,215.855438 228.665573,216.847824 
	C230.333038,218.001938 232.000504,219.156036 233.729309,220.303986 
	C233.729309,220.303986 233.746872,220.363083 233.675308,220.945999 
	C234.008438,221.050751 234.341553,221.155502 234.738678,221.304413 
M145.596283,372.397369 
	C145.596283,372.397369 145.745773,372.492645 145.684738,372.973206 
	C145.684738,372.973206 146.024063,373.319183 146.024063,373.319183 
	C146.024063,373.319183 146.505646,373.268219 146.595367,373.390198 
	C146.595367,373.390198 146.703873,373.495850 146.766556,374.147827 
	C149.035263,375.875885 151.303970,377.603943 153.655701,379.367371 
	C153.655701,379.367371 153.728607,379.420593 153.789734,380.086029 
	C156.380814,381.835907 158.971893,383.585785 161.644424,385.383545 
	C161.644424,385.383545 161.714706,385.446716 161.785400,386.109436 
	C172.348038,394.002991 183.996933,399.742828 196.556793,403.788879 
	C195.780991,402.384399 194.808228,401.284821 193.779144,400.240753 
	C172.109222,378.255646 155.288376,353.043396 144.745499,324.014832 
	C140.002151,310.954559 136.946564,297.281311 133.061279,283.091034 
	C128.244598,258.430176 129.001617,233.687988 132.039810,208.932999 
	C117.180656,204.148849 105.919937,214.210999 101.948586,226.198502 
	C99.110069,234.766571 98.512756,244.058441 96.626785,252.966248 
	C94.884697,261.194519 95.394279,269.287537 96.357651,277.584259 
	C99.936302,308.404327 112.530975,335.145874 132.153931,359.544281 
	C132.680725,359.778168 133.207504,360.012085 133.888321,360.181122 
	C133.888321,360.181122 133.766098,360.295135 133.666611,360.869049 
	C133.990265,361.018646 134.313919,361.168243 135.085251,361.599884 
	C135.241867,361.912323 135.398483,362.224762 135.609695,363.204407 
	C138.580856,365.921021 141.552002,368.637634 144.629532,371.431091 
	C144.629532,371.431091 144.733185,371.511536 144.676712,371.979492 
	C144.676712,371.979492 145.007751,372.316559 145.007751,372.316559 
	C145.007751,372.316559 145.477066,372.266205 145.596283,372.397369 
z"/>
<path fill="#75A341" opacity="1.000000" stroke="none" 
	d="
M149.290955,424.005371 
	C152.351608,425.038849 155.382660,426.298492 158.260513,427.843475 
	C185.720062,442.585083 214.767303,451.121979 246.178131,450.693298 
	C255.592560,450.564789 265.011139,450.740295 274.803406,450.912415 
	C272.995422,451.541931 270.813141,452.447479 268.628174,452.453918 
	C261.319702,452.475403 253.998734,451.823639 246.703354,452.063202 
	C222.962326,452.842834 200.223618,448.304871 178.495224,439.048035 
	C168.462555,434.773834 158.942673,429.295990 149.290955,424.005371 
z"/>
<path fill="#6EA740" opacity="1.000000" stroke="none" 
	d="
M356.869141,161.865295 
	C352.406006,153.348145 348.040131,144.418793 343.824219,135.111359 
	C344.632477,135.149414 345.609436,135.409668 345.900818,136.005310 
	C349.632202,143.633270 353.289093,151.298203 356.883179,158.991913 
	C357.202728,159.675980 356.952179,160.626404 356.869141,161.865295 
z"/>
<path fill="#71A641" opacity="1.000000" stroke="none" 
	d="
M145.742828,159.051422 
	C146.353226,168.475815 142.712601,171.824783 133.245178,170.171082 
	C135.560593,169.621490 138.271667,169.222549 141.483902,168.749847 
	C142.612930,166.009140 144.011337,162.614563 145.742828,159.051422 
z"/>
<path fill="#75A341" opacity="1.000000" stroke="none" 
	d="
M137.253418,416.042297 
	C141.285110,418.096588 145.241745,420.505951 149.242157,423.247803 
	C145.250092,421.185974 141.214233,418.791656 137.253418,416.042297 
z"/>
<path fill="#6DA73B" opacity="1.000000" stroke="none" 
	d="
M327.774719,109.949532 
	C326.263885,108.866913 324.899994,107.438934 323.606232,105.668068 
	C325.091461,106.751511 326.506561,108.177841 327.774719,109.949532 
z"/>
<path fill="#75A341" opacity="1.000000" stroke="none" 
	d="
M132.969452,412.262604 
	C134.388260,412.921112 135.851288,413.949554 137.296814,415.314575 
	C135.857452,414.644928 134.435562,413.638733 132.969452,412.262604 
z"/>
<path fill="#6DA73B" opacity="1.000000" stroke="none" 
	d="
M330.737000,113.975632 
	C329.545410,113.216629 328.508118,112.116783 327.559021,110.677841 
	C328.728577,111.437424 329.809937,112.536102 330.737000,113.975632 
z"/>
<path fill="#6DA73B" opacity="1.000000" stroke="none" 
	d="
M332.754486,117.090134 
	C331.887634,116.647644 331.160004,115.835350 330.528778,114.696968 
	C331.381378,115.154022 332.137543,115.937180 332.754486,117.090134 
z"/>
<path fill="#6DA73B" opacity="1.000000" stroke="none" 
	d="
M323.765808,104.945786 
	C322.981873,104.799767 322.315582,104.289734 321.763306,103.448166 
	C322.546021,103.605019 323.214722,104.093399 323.765808,104.945786 
z"/>
<path fill="#6DA73B" opacity="1.000000" stroke="none" 
	d="
M321.910522,102.791801 
	C321.564850,102.904030 321.257385,102.725761 320.965302,102.259125 
	C321.303375,102.147598 321.626068,102.324455 321.910522,102.791801 
z"/>
<path fill="#000000" opacity="1.000000" stroke="none" 
	d="
M172.905365,287.784760 
	C171.899216,282.875763 170.893066,277.966797 169.967926,272.255219 
	C169.697464,265.168549 169.213577,258.888336 169.030075,252.599319 
	C168.828262,245.682800 168.902817,238.758240 168.856979,231.837173 
	C170.536209,221.556320 172.374420,211.298294 173.854858,200.988892 
	C175.751389,187.782089 181.932236,176.138214 186.897522,164.045135 
	C187.253067,163.179169 188.005783,162.476273 189.106110,161.257904 
	C193.251724,154.303772 196.865036,147.789276 200.478348,141.274780 
	C200.478348,141.274780 200.481598,140.990494 200.896271,140.929443 
	C203.064697,138.137955 204.818466,135.407532 206.572235,132.677094 
	C206.572235,132.677094 206.643631,132.670090 206.991287,132.751328 
	C208.430801,131.122131 209.522659,129.411713 210.614502,127.701271 
	C210.614502,127.701271 210.736328,127.754799 211.047913,127.800690 
	C213.191360,125.514069 215.023224,123.181564 216.855072,120.849060 
	C227.347000,111.902229 237.838913,102.955399 249.078979,93.980423 
	C250.960022,93.863159 252.092911,93.774033 253.225815,93.684898 
	C253.225815,93.684898 253.152435,93.847870 253.166901,94.157021 
	C254.216446,94.827042 255.251541,95.187904 256.286621,95.548767 
	C256.286621,95.548767 256.360016,95.595207 256.265076,95.962769 
	C258.719452,97.946541 261.268799,99.562752 263.818146,101.178955 
	C263.818146,101.178955 264.007751,101.058990 263.869507,101.486588 
	C265.261475,102.783752 266.791718,103.653320 268.321960,104.522888 
	C268.321960,104.522896 268.378723,104.582077 268.274780,104.940674 
	C270.207428,106.747208 272.244080,108.195145 274.280701,109.643074 
	C274.280701,109.643074 274.299744,109.699745 274.234711,110.037476 
	C274.535797,110.454735 274.901947,110.534279 275.268066,110.613815 
	C275.268066,110.613815 275.331482,110.665627 275.267883,111.019257 
	C275.590271,111.463295 275.976318,111.553696 276.362335,111.644096 
	C276.467743,111.934074 276.638123,112.178802 276.998474,112.835541 
	C280.205261,116.126175 283.287109,118.959557 286.368927,121.792938 
	C286.523010,122.020950 286.705109,122.223785 286.994781,122.891037 
	C289.173309,125.430412 291.272308,127.480209 293.371307,129.529999 
	C293.371307,129.529999 293.416443,129.613342 293.255127,129.984161 
	C294.497986,131.794891 295.902100,133.234802 297.306244,134.674713 
	C297.306244,134.674713 297.218719,134.790054 297.158661,135.105042 
	C298.155823,136.528946 299.213074,137.637848 300.270294,138.746750 
	C300.270294,138.746750 300.031097,138.998032 300.050598,139.240173 
	C300.840973,140.168976 301.611816,140.855637 302.382660,141.542313 
	C302.382660,141.542313 302.435669,141.619904 302.277832,141.990601 
	C302.869476,143.102707 303.619019,143.844101 304.368530,144.585480 
	C304.368530,144.585480 304.396729,144.658508 304.250427,145.025330 
	C304.854248,146.133316 305.604340,146.874512 306.354462,147.615692 
	C306.354462,147.615692 306.357666,147.677734 306.228394,148.054977 
	C306.798096,149.860336 307.491791,151.291031 308.196747,152.716156 
	C313.006989,162.440735 317.819641,172.164139 322.540588,181.704163 
	C320.435059,183.268860 319.054626,184.294708 317.674194,185.320587 
	C317.674194,185.320587 317.457428,185.427643 317.142578,185.586212 
	C316.518799,186.136261 316.209869,186.527756 315.900909,186.919250 
	C313.533386,188.250259 311.165863,189.581268 308.103027,190.947296 
	C304.080170,193.437347 300.752655,195.892395 297.425110,198.347412 
	C297.425110,198.347412 297.367462,198.420410 297.001678,198.274094 
	C294.530090,199.851883 292.424286,201.575989 290.318481,203.300095 
	C290.318481,203.300095 290.175812,203.231689 289.877533,203.165527 
	C288.482971,204.166473 287.386688,205.233597 286.290405,206.300705 
	C286.290405,206.300705 286.024414,206.032410 285.795227,206.055664 
	C284.484406,207.160095 283.402802,208.241272 282.321198,209.322449 
	C282.321198,209.322464 282.202515,209.149780 281.916382,209.155655 
	C281.546051,209.529602 281.461823,209.897659 281.377594,210.265732 
	C281.377594,210.265732 281.338165,210.328659 280.991089,210.217941 
	C279.082581,211.369690 277.521118,212.632156 275.674896,214.066055 
	C275.332947,214.374344 275.206909,214.526154 275.232758,214.644974 
	C275.288940,214.903595 275.422546,215.145386 275.524536,215.394058 
	C275.524536,215.394058 275.436920,215.453354 275.068726,215.287262 
	C267.841034,221.686646 260.974243,228.244614 254.156357,234.853012 
	C253.945236,235.057648 254.241287,235.785507 254.300903,236.269455 
	C254.300919,236.269455 254.174744,236.161469 253.896423,236.167725 
	C253.478546,236.540146 253.338974,236.906311 253.199402,237.272491 
	C251.955978,236.943176 250.300720,237.010956 249.537094,236.218994 
	C245.140533,231.659454 240.955017,226.896393 236.264282,221.791595 
	C235.490524,221.365417 235.150452,221.349976 234.810379,221.334518 
	C234.810379,221.334518 234.738678,221.304413 234.783768,220.967590 
	C234.468201,220.541550 234.107529,220.452316 233.746872,220.363083 
	C233.746872,220.363083 233.729309,220.303986 233.773682,219.950104 
	C232.115723,218.438812 230.413376,217.281403 228.711029,216.123993 
	C228.632111,215.855438 228.481369,215.636276 228.060226,215.051834 
	C227.490677,214.550598 227.119736,214.464066 226.748779,214.377533 
	C226.748779,214.377533 226.716675,214.330963 226.751465,213.971634 
	C225.083633,212.550720 223.380997,211.489120 221.678375,210.427536 
	C221.678375,210.427536 221.658966,210.367859 221.751770,210.028168 
	C220.263947,208.445145 218.683304,207.201797 216.939789,205.631897 
	C211.384979,200.419601 204.867050,202.171860 198.643173,202.310959 
	C198.385605,202.316711 198.151428,203.368439 197.906342,203.932877 
	C196.423401,204.417175 194.940460,204.901474 192.914383,205.725906 
	C185.276474,209.445999 183.180328,220.237198 185.764496,228.355225 
	C186.722321,231.364166 187.021652,235.055817 191.273666,235.658524 
	C191.273666,235.658524 191.185379,235.859055 191.181213,236.130386 
	C192.883606,237.472458 194.590164,238.543182 196.296738,239.613922 
	C196.296738,239.613922 196.246307,239.726868 196.194672,240.052673 
	C197.866058,241.432571 199.589096,242.486664 201.312134,243.540741 
	C201.312134,243.540741 201.398422,243.615234 201.307938,243.967896 
	C201.571014,244.376877 201.924576,244.433212 202.278137,244.489563 
	C202.278137,244.489563 202.392822,244.537537 202.290009,244.912476 
	C204.548141,247.082397 206.909088,248.877350 209.270020,250.672318 
	C209.270020,250.672318 209.145584,250.841721 209.160263,251.125107 
	C209.895782,251.796982 210.616638,252.185471 211.337479,252.573975 
	C211.337479,252.573975 211.386887,252.640198 211.291931,252.979324 
	C211.562866,253.388596 211.928741,253.458740 212.294617,253.528885 
	C212.294617,253.528885 212.406494,253.594116 212.307205,253.950729 
	C212.569214,254.394119 212.930527,254.480881 213.291824,254.567642 
	C213.291824,254.567642 213.353333,254.642670 213.259323,254.998810 
	C213.531525,255.449570 213.897736,255.544174 214.263947,255.638763 
	C214.263947,255.638779 214.305115,255.692749 214.233032,256.031372 
	C214.527557,256.448395 214.894135,256.526825 215.260727,256.605225 
	C215.260727,256.605225 215.344910,256.653168 215.267471,256.995911 
	C215.549332,257.412048 215.908646,257.485413 216.267944,257.558777 
	C216.267944,257.558777 216.379349,257.619568 216.291473,257.971893 
	C216.557907,258.415070 216.912186,258.505890 217.266479,258.596710 
	C217.266479,258.596710 217.333664,258.647644 217.226334,259.018677 
	C219.833374,262.176331 222.547745,264.962952 225.262115,267.749573 
	C225.262115,267.749573 225.010284,268.000519 225.043610,268.234497 
	C226.506973,269.835297 227.937027,271.202118 229.367081,272.568939 
	C229.367081,272.568939 229.387131,272.638824 229.248993,273.039978 
	C229.751068,275.882080 229.995865,278.527527 231.126907,280.714661 
	C232.704819,283.765900 231.546494,288.489197 236.315277,289.677582 
	C236.315277,289.677582 236.128662,289.816071 236.159424,290.111084 
	C236.585342,290.462677 236.980515,290.519287 237.375687,290.575928 
	C237.506226,290.872986 237.693497,291.128448 238.046875,291.821381 
	C240.581009,293.784943 242.937836,296.365936 245.444946,296.521301 
	C250.378601,296.826965 256.063995,299.363129 260.136414,294.006714 
	C266.209351,291.018402 269.679108,286.317078 269.918243,279.393677 
	C270.212738,270.869415 276.320038,265.546814 281.472382,260.090790 
	C294.881287,245.891617 310.737823,234.707718 327.545746,224.877914 
	C339.542755,217.861694 351.995422,211.827652 365.820557,209.372589 
	C370.443817,208.551559 375.312561,207.655151 379.880341,208.247833 
	C394.605835,210.158508 399.951324,221.331223 403.150848,233.841400 
	C410.524323,262.671722 406.841919,290.543213 395.439514,317.726044 
	C390.043030,330.591003 383.079193,342.468597 373.895294,353.704132 
	C367.327118,360.317535 361.321289,366.630890 355.330719,372.958679 
	C355.302917,372.988037 355.492004,373.222717 355.579834,373.361542 
	C355.579834,373.361542 355.482605,373.503387 355.092285,373.321289 
	C351.839417,375.251190 349.110321,377.580536 346.089935,379.435699 
	C335.811981,385.748535 325.431274,391.894104 314.909668,397.904846 
	C314.592041,397.591858 314.454529,397.477600 314.518311,397.095978 
	C320.765228,389.654541 327.336548,382.854187 332.754578,375.233887 
	C347.045898,355.133636 358.226440,333.452820 365.201569,309.620544 
	C370.222107,292.466705 373.652344,275.201233 373.010132,257.258301 
	C372.725433,249.304001 366.932922,242.140610 359.098907,240.167603 
	C350.521698,238.007431 339.558075,241.663391 336.860809,248.943771 
	C334.294952,255.869385 333.111023,263.419952 332.143829,270.803711 
	C329.236816,292.996918 322.041046,313.605957 311.070190,333.087524 
	C297.146454,357.812714 278.399353,377.910217 254.989365,393.837036 
	C252.087128,395.811584 250.072449,396.205475 247.203079,393.926178 
	C242.333908,390.058380 237.152481,386.583679 231.932632,382.666199 
	C231.380844,382.419128 230.998703,382.449554 230.616562,382.480011 
	C230.616562,382.480011 230.583542,382.387817 230.703812,382.021973 
	C230.453018,381.583344 230.081955,381.510559 229.710892,381.437805 
	C229.710892,381.437805 229.638748,381.404724 229.741943,381.055420 
	C225.363388,376.116791 220.936661,371.471558 216.366714,366.971832 
	C214.980927,365.607361 213.199265,364.644928 211.598938,363.498322 
	C211.598938,363.498322 211.526947,363.412842 211.660965,363.075806 
	C211.433899,362.623749 211.072815,362.508728 210.711716,362.393738 
	C210.711716,362.393738 210.670380,362.336853 210.786224,361.969513 
	C209.798126,360.568054 208.694199,359.533905 207.590271,358.499786 
	C207.590271,358.499786 207.558029,358.413605 207.713745,358.022491 
	C207.172287,357.063782 206.475128,356.496185 205.777954,355.928619 
	C205.359024,355.383575 204.940094,354.838562 204.274551,353.788330 
	C203.245880,352.283081 202.463821,351.282990 201.681747,350.282898 
	C201.681747,350.282898 202.005539,350.044495 201.959808,349.799622 
	C199.818665,346.839661 197.723251,344.124573 195.627838,341.409454 
	C195.627838,341.409454 195.614426,341.342194 195.754471,340.967621 
	C194.880508,339.339935 193.866501,338.086823 192.852478,336.833710 
	C190.289581,332.166504 187.726700,327.499298 185.064362,322.124207 
	C183.223709,317.342529 181.482483,313.268768 179.741272,309.195007 
	C179.741272,309.195007 179.958374,309.065613 179.943787,308.725464 
	C178.416565,303.222809 176.980194,298.035980 175.349823,292.910889 
	C174.781342,291.123810 173.734009,289.489075 172.905365,287.784760 
z"/>
<path fill="#010100" opacity="1.000000" stroke="none" 
	d="
M135.555115,362.537201 
	C135.398483,362.224762 135.241867,361.912323 134.950165,361.150543 
	C134.465408,360.565857 134.115753,360.430511 133.766098,360.295166 
	C133.766098,360.295135 133.888321,360.181122 133.864471,359.878662 
	C133.229156,359.362366 132.617676,359.148499 132.006210,358.934662 
	C112.530975,335.145874 99.936302,308.404327 96.357651,277.584259 
	C95.394279,269.287537 94.884697,261.194519 96.626785,252.966248 
	C98.512756,244.058441 99.110069,234.766571 101.948586,226.198502 
	C105.919937,214.210999 117.180656,204.148849 132.039810,208.932999 
	C129.001617,233.687988 128.244598,258.430176 132.991913,283.943726 
	C133.021454,287.617828 132.629715,290.561829 133.299057,293.240723 
	C137.582642,310.384766 142.885208,327.202698 150.644012,343.141205 
	C160.329010,363.036530 173.322723,380.684662 187.503632,397.537476 
	C187.143814,397.858673 187.011368,397.999664 186.518494,398.094299 
	C181.243408,395.468445 176.339920,392.867493 171.410156,390.317230 
	C168.198090,388.655548 164.947845,387.067657 161.714706,385.446716 
	C161.714706,385.446716 161.644424,385.383545 161.713562,385.015442 
	C159.098007,382.905121 156.413300,381.162872 153.728607,379.420593 
	C153.728607,379.420593 153.655701,379.367371 153.713058,379.006866 
	C151.414902,376.929535 149.059387,375.212708 146.703873,373.495850 
	C146.703873,373.495850 146.595367,373.390198 146.691620,373.035889 
	C146.440491,372.618622 146.093140,372.555634 145.745773,372.492645 
	C145.745773,372.492645 145.596283,372.397369 145.678146,372.044922 
	C145.417740,371.632202 145.075455,371.571869 144.733185,371.511536 
	C144.733185,371.511536 144.629532,371.431091 144.712051,371.059509 
	C141.714752,367.971039 138.634933,365.254120 135.555115,362.537201 
z"/>
<path fill="#81AB50" opacity="1.000000" stroke="none" 
	d="
M315.089783,398.103546 
	C325.431274,391.894104 335.811981,385.748535 346.089935,379.435699 
	C349.110321,377.580536 351.839417,375.251190 355.015564,373.360107 
	C348.366760,379.115417 341.821594,385.314819 334.334045,390.012115 
	C325.413086,395.608673 315.683777,399.916748 306.304688,404.783051 
	C306.033386,404.355652 305.762115,403.928253 305.490814,403.500854 
	C310.241669,398.353424 315.126160,393.322296 319.721710,388.039764 
	C350.281158,352.911591 367.600372,312.101013 371.833923,265.757233 
	C373.020416,252.769119 368.419312,244.772858 358.593597,242.034363 
	C346.743195,238.731598 335.954529,247.094528 335.037659,260.242889 
	C332.859039,291.484436 322.809113,320.052734 305.458771,346.033142 
	C291.983612,366.210785 275.052094,382.967773 254.726776,396.299133 
	C252.139221,397.996277 250.226425,398.434967 247.654984,396.372711 
	C242.212234,392.007721 236.569489,387.892090 231.195587,383.338562 
	C231.622360,382.983215 231.862320,382.963501 232.102280,382.943756 
	C237.152481,386.583679 242.333908,390.058380 247.203079,393.926178 
	C250.072449,396.205475 252.087128,395.811584 254.989365,393.837036 
	C278.399353,377.910217 297.146454,357.812714 311.070190,333.087524 
	C322.041046,313.605957 329.236816,292.996918 332.143829,270.803711 
	C333.111023,263.419952 334.294952,255.869385 336.860809,248.943771 
	C339.558075,241.663391 350.521698,238.007431 359.098907,240.167603 
	C366.932922,242.140610 372.725433,249.304001 373.010132,257.258301 
	C373.652344,275.201233 370.222107,292.466705 365.201569,309.620544 
	C358.226440,333.452820 347.045898,355.133636 332.754578,375.233887 
	C327.336548,382.854187 320.765228,389.654541 314.297455,397.266083 
	C313.762482,398.072784 313.649628,398.442078 313.536774,398.811340 
	C314.054443,398.575409 314.572113,398.339478 315.089783,398.103546 
z"/>
<path fill="#80AA50" opacity="1.000000" stroke="none" 
	d="
M187.731033,397.357300 
	C173.322723,380.684662 160.329010,363.036530 150.644012,343.141205 
	C142.885208,327.202698 137.582642,310.384766 133.299057,293.240723 
	C132.629715,290.561829 133.021454,287.617828 133.023849,284.341309 
	C136.946564,297.281311 140.002151,310.954559 144.745499,324.014832 
	C155.288376,353.043396 172.109222,378.255646 193.779144,400.240753 
	C194.808228,401.284821 195.780991,402.384399 196.556793,403.788879 
	C183.996933,399.742828 172.348038,394.002991 161.750061,385.778076 
	C164.947845,387.067657 168.198090,388.655548 171.410156,390.317230 
	C176.339920,392.867493 181.243408,395.468445 186.658157,398.358521 
	C187.611343,398.704041 188.064407,398.738983 188.517487,398.773926 
	C188.255325,398.301727 187.993179,397.829498 187.731033,397.357300 
z"/>
<path fill="#75A444" opacity="1.000000" stroke="none" 
	d="
M317.992249,185.553360 
	C319.054626,184.294708 320.435059,183.268860 322.540588,181.704163 
	C317.819641,172.164139 313.006989,162.440735 308.196747,152.716156 
	C307.491791,151.291031 306.798096,149.860336 306.253113,148.073807 
	C307.778992,149.486618 309.481537,151.092377 310.465118,153.057922 
	C314.552673,161.226471 318.544952,169.448135 322.332336,177.759613 
	C324.994537,183.601837 324.748291,183.825836 317.992249,185.553360 
z"/>
<path fill="#75A13D" opacity="1.000000" stroke="none" 
	d="
M254.648026,236.324615 
	C254.241287,235.785507 253.945236,235.057648 254.156357,234.853012 
	C260.974243,228.244614 267.841034,221.686646 275.027710,215.320618 
	C268.568298,222.473312 261.781738,229.426544 254.648026,236.324615 
z"/>
<path fill="#75A342" opacity="1.000000" stroke="none" 
	d="
M191.296448,235.306152 
	C187.021652,235.055817 186.722321,231.364166 185.764496,228.355225 
	C183.180328,220.237198 185.276474,209.445999 192.724884,206.009109 
	C192.866287,206.546173 192.797256,207.257538 192.420776,207.716919 
	C184.305542,217.619400 184.025375,224.246063 191.296448,235.306152 
z"/>
<path fill="#81AB50" opacity="1.000000" stroke="none" 
	d="
M355.911224,373.363892 
	C355.492004,373.222717 355.302917,372.988037 355.330719,372.958679 
	C361.321289,366.630890 367.327118,360.317535 373.685913,353.964478 
	C368.107117,360.405518 362.174866,366.885895 355.911224,373.363892 
z"/>
<path fill="#71A641" opacity="1.000000" stroke="none" 
	d="
M211.553116,363.833588 
	C213.199265,364.644928 214.980927,365.607361 216.366714,366.971832 
	C220.936661,371.471558 225.363388,376.116791 229.703064,381.047424 
	C223.543121,375.648804 217.525208,369.908844 211.553116,363.833588 
z"/>
<path fill="#75A444" opacity="1.000000" stroke="none" 
	d="
M168.507782,232.107819 
	C168.902817,238.758240 168.828262,245.682800 169.030075,252.599319 
	C169.213577,258.888336 169.697464,265.168549 169.930359,271.859863 
	C169.260712,258.970886 168.709656,245.674667 168.507782,232.107819 
z"/>
<path fill="#75A341" opacity="1.000000" stroke="none" 
	d="
M200.235474,141.110992 
	C196.865036,147.789276 193.251724,154.303772 189.314407,160.972275 
	C190.192642,158.007996 191.061478,154.702698 192.679611,151.817673 
	C194.808899,148.021240 197.527435,144.555283 200.235474,141.110992 
z"/>
<path fill="#75A342" opacity="1.000000" stroke="none" 
	d="
M259.729095,293.966339 
	C256.063995,299.363129 250.378601,296.826965 245.444946,296.521301 
	C242.937836,296.365936 240.581009,293.784943 238.261337,291.926636 
	C245.028229,295.198730 251.884338,297.129059 259.729095,293.966339 
z"/>
<path fill="#71A83E" opacity="1.000000" stroke="none" 
	d="
M172.849518,288.209778 
	C173.734009,289.489075 174.781342,291.123810 175.349823,292.910889 
	C176.980194,298.035980 178.416565,303.222809 179.837463,308.786438 
	C177.428360,302.336578 175.111008,295.485687 172.849518,288.209778 
z"/>
<path fill="#75A342" opacity="1.000000" stroke="none" 
	d="
M236.389954,289.308960 
	C231.546494,288.489197 232.704819,283.765900 231.126907,280.714661 
	C229.995865,278.527527 229.751068,275.882080 229.278732,273.060913 
	C230.509033,274.390076 231.835815,275.992798 232.577927,277.831451 
	C234.044571,281.465363 235.187714,285.229828 236.389954,289.308960 
z"/>
<path fill="#71A83E" opacity="1.000000" stroke="none" 
	d="
M198.321411,203.898880 
	C198.151428,203.368439 198.385605,202.316711 198.643173,202.310959 
	C204.867050,202.171860 211.384979,200.419601 216.554138,205.676941 
	C216.074951,206.083939 215.818512,206.119339 215.562088,206.154739 
	C210.208557,203.517624 204.716721,201.896881 198.321411,203.898880 
z"/>
<path fill="#80AA50" opacity="1.000000" stroke="none" 
	d="
M135.582397,362.870789 
	C138.634933,365.254120 141.714752,367.971039 144.658859,371.021118 
	C141.552002,368.637634 138.580856,365.921021 135.582397,362.870789 
z"/>
<path fill="#75A444" opacity="1.000000" stroke="none" 
	d="
M286.455200,121.431046 
	C283.287109,118.959557 280.205261,116.126175 277.201599,112.933403 
	C280.367035,115.405731 283.454254,118.237442 286.455200,121.431046 
z"/>
<path fill="#75A342" opacity="1.000000" stroke="none" 
	d="
M225.341614,267.397522 
	C222.547745,264.962952 219.833374,262.176331 217.260422,259.043488 
	C220.074921,261.480011 222.748016,264.262756 225.341614,267.397522 
z"/>
<path fill="#74A442" opacity="1.000000" stroke="none" 
	d="
M297.771606,198.435181 
	C300.752655,195.892395 304.080170,193.437347 307.775269,191.051926 
	C304.801239,193.588669 301.459656,196.055801 297.771606,198.435181 
z"/>
<path fill="#71A83E" opacity="1.000000" stroke="none" 
	d="
M179.607162,309.572998 
	C181.482483,313.268768 183.223709,317.342529 184.872406,321.822021 
	C183.010941,318.135529 181.241989,314.043274 179.607162,309.572998 
z"/>
<path fill="#6DA73B" opacity="1.000000" stroke="none" 
	d="
M195.560059,341.761597 
	C197.723251,344.124573 199.818665,346.839661 201.796967,349.914948 
	C199.617340,347.554657 197.554825,344.834198 195.560059,341.761597 
z"/>
<path fill="#75A13D" opacity="1.000000" stroke="none" 
	d="
M206.231812,132.667938 
	C204.818466,135.407532 203.064697,138.137955 200.945114,140.795959 
	C202.349991,138.035263 204.120697,135.347031 206.231812,132.667938 
z"/>
<path fill="#80AA50" opacity="1.000000" stroke="none" 
	d="
M153.759155,379.753326 
	C156.413300,381.162872 159.098007,382.905121 161.672852,384.991516 
	C158.971893,383.585785 156.380814,381.835907 153.759155,379.753326 
z"/>
<path fill="#75A342" opacity="1.000000" stroke="none" 
	d="
M209.321350,250.325470 
	C206.909088,248.877350 204.548141,247.082397 202.338470,244.951416 
	C204.784027,246.403137 207.078354,248.190872 209.321350,250.325470 
z"/>
<path fill="#80AA50" opacity="1.000000" stroke="none" 
	d="
M146.735214,373.821838 
	C149.059387,375.212708 151.414902,376.929535 153.671539,378.989166 
	C151.303970,377.603943 149.035263,375.875885 146.735214,373.821838 
z"/>
<path fill="#75A13D" opacity="1.000000" stroke="none" 
	d="
M216.509766,120.897278 
	C215.023224,123.181564 213.191360,125.514069 211.011948,127.744720 
	C212.497742,125.410408 214.331100,123.177948 216.509766,120.897278 
z"/>
<path fill="#75A444" opacity="1.000000" stroke="none" 
	d="
M293.440247,129.190445 
	C291.272308,127.480209 289.173309,125.430412 287.159363,123.013245 
	C289.332672,124.714203 291.420959,126.782547 293.440247,129.190445 
z"/>
<path fill="#75A444" opacity="1.000000" stroke="none" 
	d="
M263.905640,100.827255 
	C261.268799,99.562752 258.719452,97.946541 256.304779,95.980301 
	C258.957336,97.245369 261.475220,98.860458 263.905640,100.827255 
z"/>
<path fill="#74A442" opacity="1.000000" stroke="none" 
	d="
M290.664673,203.397736 
	C292.424286,201.575989 294.530090,199.851883 296.975525,198.312561 
	C295.213745,200.163361 293.112305,201.829361 290.664673,203.397736 
z"/>
<path fill="#75A444" opacity="1.000000" stroke="none" 
	d="
M274.292664,109.300690 
	C272.244080,108.195145 270.207428,106.747208 268.313263,104.954773 
	C270.405365,106.059616 272.354980,107.508965 274.292664,109.300690 
z"/>
<path fill="#71A641" opacity="1.000000" stroke="none" 
	d="
M215.751083,206.450165 
	C215.818512,206.119339 216.074951,206.083939 216.717026,206.003510 
	C218.683304,207.201797 220.263947,208.445145 221.720398,210.029053 
	C219.710846,209.161621 217.825470,207.953613 215.751083,206.450165 
z"/>
<path fill="#74A442" opacity="1.000000" stroke="none" 
	d="
M275.959686,213.894608 
	C277.521118,212.632156 279.082581,211.369690 280.976501,210.252075 
	C279.748779,211.975311 278.188599,213.553680 276.306946,214.895264 
	C275.976898,214.403870 275.968292,214.149246 275.959686,213.894608 
z"/>
<path fill="#71A641" opacity="1.000000" stroke="none" 
	d="
M221.694183,210.763580 
	C223.380997,211.489120 225.083633,212.550720 226.723236,213.969788 
	C225.010147,213.251404 223.360062,212.175522 221.694183,210.763580 
z"/>
<path fill="#71A641" opacity="1.000000" stroke="none" 
	d="
M228.688293,216.485901 
	C230.413376,217.281403 232.115723,218.438812 233.743011,219.953186 
	C232.000504,219.156036 230.333038,218.001938 228.688293,216.485901 
z"/>
<path fill="#75A342" opacity="1.000000" stroke="none" 
	d="
M229.411926,272.227600 
	C227.937027,271.202118 226.506973,269.835297 225.172943,268.112183 
	C226.664902,269.132690 228.060837,270.509491 229.411926,272.227600 
z"/>
<path fill="#75A342" opacity="1.000000" stroke="none" 
	d="
M196.298553,239.273834 
	C194.590164,238.543182 192.883606,237.472458 191.249481,236.044708 
	C192.981400,236.769714 194.640884,237.851730 196.298553,239.273834 
z"/>
<path fill="#75A342" opacity="1.000000" stroke="none" 
	d="
M201.290878,243.207184 
	C199.589096,242.486664 197.866058,241.432571 196.248840,240.022827 
	C197.992966,240.735992 199.631287,241.804810 201.290878,243.207184 
z"/>
<path fill="#75A444" opacity="1.000000" stroke="none" 
	d="
M297.422821,134.335907 
	C295.902100,133.234802 294.497986,131.794891 293.280579,130.024139 
	C294.824677,131.127899 296.182037,132.562515 297.422821,134.335907 
z"/>
<path fill="#75A13D" opacity="1.000000" stroke="none" 
	d="
M210.269562,127.645493 
	C209.522659,129.411713 208.430801,131.122131 206.983887,132.716217 
	C207.727432,130.929825 208.826035,129.259766 210.269562,127.645493 
z"/>
<path fill="#75A444" opacity="1.000000" stroke="none" 
	d="
M268.295349,104.188293 
	C266.791718,103.653320 265.261475,102.783752 263.780640,101.555771 
	C265.309601,102.082802 266.789185,102.968254 268.295349,104.188293 
z"/>
<path fill="#6DA73B" opacity="1.000000" stroke="none" 
	d="
M192.747726,337.193909 
	C193.866501,338.086823 194.880508,339.339935 195.725006,340.950073 
	C194.584656,340.056061 193.613815,338.805084 192.747726,337.193909 
z"/>
<path fill="#71A641" opacity="1.000000" stroke="none" 
	d="
M207.531479,358.828918 
	C208.694199,359.533905 209.798126,360.568054 210.755905,361.951691 
	C209.564072,361.253479 208.518387,360.205750 207.531479,358.828918 
z"/>
<path fill="#75A444" opacity="1.000000" stroke="none" 
	d="
M253.221588,93.320999 
	C252.092911,93.774033 250.960022,93.863159 249.412445,93.865860 
	C249.918564,91.012955 251.443771,91.347786 253.221588,93.320999 
z"/>
<path fill="#75A444" opacity="1.000000" stroke="none" 
	d="
M300.414795,138.410217 
	C299.213074,137.637848 298.155823,136.528946 297.224609,135.075211 
	C298.420197,135.844803 299.489777,136.959244 300.414795,138.410217 
z"/>
<path fill="#74A442" opacity="1.000000" stroke="none" 
	d="
M286.629456,206.410828 
	C287.386688,205.233597 288.482971,204.166473 289.927917,203.226501 
	C289.173889,204.409393 288.071198,205.465164 286.629456,206.410828 
z"/>
<path fill="#74A442" opacity="1.000000" stroke="none" 
	d="
M282.661865,209.435684 
	C283.402802,208.241272 284.484406,207.160095 285.920197,206.197342 
	C285.183746,207.393494 284.093140,208.471207 282.661865,209.435684 
z"/>
<path fill="#6DA73B" opacity="1.000000" stroke="none" 
	d="
M201.567520,350.621155 
	C202.463821,351.282990 203.245880,352.283081 204.048920,353.652924 
	C203.197678,353.001587 202.325485,351.980469 201.567520,350.621155 
z"/>
<path fill="#75A444" opacity="1.000000" stroke="none" 
	d="
M256.250549,95.211411 
	C255.251541,95.187904 254.216446,94.827042 253.228271,94.092064 
	C254.254959,94.103325 255.234741,94.488686 256.250549,95.211411 
z"/>
<path fill="#75A444" opacity="1.000000" stroke="none" 
	d="
M302.466370,141.208374 
	C301.611816,140.855637 300.840973,140.168976 300.176514,139.120514 
	C301.038635,139.463974 301.794373,140.169205 302.466370,141.208374 
z"/>
<path fill="#75A444" opacity="1.000000" stroke="none" 
	d="
M304.477478,144.268768 
	C303.619019,143.844101 302.869476,143.102707 302.310944,142.023956 
	C303.196747,142.441742 303.891602,143.196899 304.477478,144.268768 
z"/>
<path fill="#75A444" opacity="1.000000" stroke="none" 
	d="
M306.450684,147.292175 
	C305.604340,146.874512 304.854248,146.133316 304.276733,145.054306 
	C305.148560,145.467194 305.847717,146.217926 306.450684,147.292175 
z"/>
<path fill="#71A641" opacity="1.000000" stroke="none" 
	d="
M205.667282,356.274719 
	C206.475128,356.496185 207.172287,357.063782 207.686966,357.985077 
	C206.855194,357.766113 206.205902,357.193451 205.667282,356.274719 
z"/>
<path fill="#75A342" opacity="1.000000" stroke="none" 
	d="
M211.353394,252.247772 
	C210.616638,252.185471 209.895782,251.796982 209.242950,251.060226 
	C209.997070,251.115158 210.683197,251.518356 211.353394,252.247772 
z"/>
<path fill="#80AA50" opacity="1.000000" stroke="none" 
	d="
M132.080078,359.239471 
	C132.617676,359.148499 133.229156,359.362366 133.787445,359.911133 
	C133.207504,360.012085 132.680725,359.778168 132.080078,359.239471 
z"/>
<path fill="#75A444" opacity="1.000000" stroke="none" 
	d="
M316.255341,186.982513 
	C316.209869,186.527756 316.518799,186.136261 317.082397,185.691040 
	C317.094635,186.106812 316.852203,186.576309 316.255341,186.982513 
z"/>
<path fill="#71A641" opacity="1.000000" stroke="none" 
	d="
M210.663635,362.647308 
	C211.072815,362.508728 211.433899,362.623749 211.625626,363.032532 
	C211.176025,363.184509 210.895798,363.042725 210.663635,362.647308 
z"/>
<path fill="#75A342" opacity="1.000000" stroke="none" 
	d="
M212.315231,253.270172 
	C211.928741,253.458740 211.562866,253.388596 211.324799,253.004364 
	C211.747009,252.797333 212.041428,252.904388 212.315231,253.270172 
z"/>
<path fill="#75A342" opacity="1.000000" stroke="none" 
	d="
M213.330460,254.307648 
	C212.930527,254.480881 212.569214,254.394119 212.346130,254.002472 
	C212.779251,253.814285 213.074173,253.930969 213.330460,254.307648 
z"/>
<path fill="#75A342" opacity="1.000000" stroke="none" 
	d="
M214.319931,255.354614 
	C213.897736,255.544174 213.531525,255.449570 213.282104,255.041641 
	C213.724579,254.842361 214.050247,254.956406 214.319931,255.354614 
z"/>
<path fill="#71A641" opacity="1.000000" stroke="none" 
	d="
M231.932632,382.666199 
	C231.862320,382.963501 231.622360,382.983215 231.021545,383.037659 
	C230.660690,383.072357 230.477219,382.785736 230.546890,382.632874 
	C230.998703,382.449554 231.380844,382.419128 231.932632,382.666199 
z"/>
<path fill="#71A641" opacity="1.000000" stroke="none" 
	d="
M229.676132,381.707672 
	C230.081955,381.510559 230.453018,381.583344 230.696289,381.973572 
	C230.259460,382.186523 229.950424,382.082031 229.676132,381.707672 
z"/>
<path fill="#75A342" opacity="1.000000" stroke="none" 
	d="
M215.304108,256.318054 
	C214.894135,256.526825 214.527557,256.448395 214.260162,256.051819 
	C214.688736,255.832703 215.018127,255.931793 215.304108,256.318054 
z"/>
<path fill="#75A342" opacity="1.000000" stroke="none" 
	d="
M216.305664,257.288605 
	C215.908646,257.485413 215.549332,257.412048 215.303192,257.028687 
	C215.725357,256.818573 216.034363,256.918488 216.305664,257.288605 
z"/>
<path fill="#80AA50" opacity="1.000000" stroke="none" 
	d="
M145.715256,372.732910 
	C146.093140,372.555634 146.440491,372.618622 146.646759,372.974915 
	C146.505646,373.268219 146.024063,373.319183 146.024063,373.319183 
	C146.024063,373.319183 145.684738,372.973206 145.715256,372.732910 
z"/>
<path fill="#80AA50" opacity="1.000000" stroke="none" 
	d="
M144.704956,371.745514 
	C145.075455,371.571869 145.417740,371.632202 145.618530,371.979370 
	C145.477066,372.266205 145.007751,372.316559 145.007751,372.316559 
	C145.007751,372.316559 144.676712,371.979492 144.704956,371.745514 
z"/>
<path fill="#75A342" opacity="1.000000" stroke="none" 
	d="
M217.313766,258.329529 
	C216.912186,258.505890 216.557907,258.415070 216.328003,258.023743 
	C216.755264,257.836304 217.058167,257.949341 217.313766,258.329529 
z"/>
<path fill="#75A13D" opacity="1.000000" stroke="none" 
	d="
M253.487274,237.232635 
	C253.338974,236.906311 253.478546,236.540146 253.934814,236.241333 
	C254.092728,236.603409 253.933929,236.898102 253.487274,237.232635 
z"/>
<path fill="#80AA50" opacity="1.000000" stroke="none" 
	d="
M133.716354,360.582092 
	C134.115753,360.430511 134.465408,360.565857 134.726318,361.009521 
	C134.313919,361.168243 133.990265,361.018646 133.716354,360.582092 
z"/>
<path fill="#75A444" opacity="1.000000" stroke="none" 
	d="
M276.383240,111.349449 
	C275.976318,111.553696 275.590271,111.463295 275.300110,111.044487 
	C275.732025,110.828987 276.068085,110.941895 276.383240,111.349449 
z"/>
<path fill="#75A342" opacity="1.000000" stroke="none" 
	d="
M202.299820,244.240326 
	C201.924576,244.433212 201.571014,244.376877 201.339722,244.015198 
	C201.748489,243.803604 202.035004,243.897354 202.299820,244.240326 
z"/>
<path fill="#71A641" opacity="1.000000" stroke="none" 
	d="
M234.908600,221.592834 
	C235.150452,221.349976 235.490524,221.365417 235.961029,221.637207 
	C235.729919,221.879440 235.368362,221.865311 234.908600,221.592834 
z"/>
<path fill="#71A641" opacity="1.000000" stroke="none" 
	d="
M233.711090,220.654541 
	C234.107529,220.452316 234.468201,220.541550 234.751770,220.945526 
	C234.341553,221.155502 234.008438,221.050751 233.711090,220.654541 
z"/>
<path fill="#74A442" opacity="1.000000" stroke="none" 
	d="
M281.666473,210.302414 
	C281.461823,209.897659 281.546051,209.529602 281.949829,209.254944 
	C282.164673,209.678604 282.059998,210.008850 281.666473,210.302414 
z"/>
<path fill="#71A641" opacity="1.000000" stroke="none" 
	d="
M226.748657,214.702225 
	C227.119736,214.464066 227.490677,214.550598 227.877670,214.964981 
	C227.511993,215.204193 227.130264,215.115555 226.748657,214.702225 
z"/>
<path fill="#75A13D" opacity="1.000000" stroke="none" 
	d="
M275.674896,214.066055 
	C275.968292,214.149246 275.976898,214.403870 275.990112,215.043213 
	C275.994690,215.427948 275.751251,215.512665 275.637878,215.453369 
	C275.422546,215.145386 275.288940,214.903595 275.232758,214.644974 
	C275.206909,214.526154 275.332947,214.374344 275.674896,214.066055 
z"/>
<path fill="#75A342" opacity="1.000000" stroke="none" 
	d="
M237.355972,290.292053 
	C236.980515,290.519287 236.585342,290.462677 236.266205,290.065247 
	C236.673569,289.819000 237.004913,289.913574 237.355972,290.292053 
z"/>
<path fill="#75A444" opacity="1.000000" stroke="none" 
	d="
M275.297485,110.328789 
	C274.901947,110.534279 274.535797,110.454735 274.257446,110.056839 
	C274.672455,109.840240 274.999664,109.942001 275.297485,110.328789 
z"/>
<path fill="#000000" opacity="1.000000" stroke="none" 
	d="
M314.909668,397.904846 
	C314.572113,398.339478 314.054443,398.575409 313.536774,398.811340 
	C313.649628,398.442078 313.762482,398.072784 314.096191,397.533417 
	C314.454529,397.477600 314.592041,397.591858 314.909668,397.904846 
z"/>
<path fill="#010100" opacity="1.000000" stroke="none" 
	d="
M187.503632,397.537476 
	C187.993179,397.829498 188.255325,398.301727 188.517487,398.773926 
	C188.064407,398.738983 187.611343,398.704041 187.018600,398.404907 
	C187.011368,397.999664 187.143814,397.858673 187.503632,397.537476 
z"/>
</svg>