<svg version="1.1" id="Layer_1" xmlns="http://www.w3.org/2000/svg" xmlns:xlink="http://www.w3.org/1999/xlink" x="0px" y="0px"
	 width="100%" viewBox="0 0 866 288" enable-background="new 0 0 866 288" xml:space="preserve">
<path fill="#010101" opacity="1.000000" stroke="none" 
	d="
M612.000000,289.000000 
	C408.000000,289.000000 204.500000,289.000000 1.000000,289.000000 
	C1.000000,193.000000 1.000000,97.000000 1.000000,1.000000 
	C289.666656,1.000000 578.333313,1.000000 867.000000,1.000000 
	C867.000000,97.000000 867.000000,193.000000 867.000000,289.000000 
	C782.166687,289.000000 697.333313,289.000000 612.000000,289.000000 
M371.323364,201.917465 
	C362.548065,186.816605 353.816345,171.689987 344.929565,156.655014 
	C344.049072,155.165283 342.294281,153.326889 340.820648,153.209076 
	C335.579254,152.790039 330.283966,153.045425 324.903870,153.045425 
	C324.903870,175.930115 324.903870,198.348923 324.903870,220.687424 
	C329.228973,220.687424 333.298920,220.687424 337.354797,220.687424 
	C337.354797,203.929672 337.354797,187.514618 337.354797,170.153351 
	C346.852722,186.616562 355.802246,202.186218 364.845886,217.701019 
	C365.601410,218.997162 366.938751,220.803711 368.095001,220.872467 
	C373.674835,221.204254 379.285217,221.021881 385.143982,221.021881 
	C385.143982,189.626724 385.143982,158.833496 385.143982,127.735489 
	C397.720428,137.934387 411.428070,133.405487 415.199341,118.077911 
	C417.105377,110.331238 416.981293,102.513542 413.954254,95.010208 
	C410.409424,86.223488 402.047150,82.118813 393.243317,85.145287 
	C390.115295,86.220589 387.447723,88.635368 384.431854,90.525238 
	C383.870056,88.920227 383.238312,87.115265 382.619873,85.348404 
	C379.131714,85.348404 375.860291,85.348404 372.532898,85.348404 
	C372.361877,86.019409 372.139801,86.482048 372.141083,86.944084 
	C372.242950,124.249352 372.366943,161.554565 372.456818,198.859863 
	C372.459412,199.936417 372.115021,201.013824 371.977661,202.028961 
	C371.977661,202.028961 372.028381,201.971481 371.323364,201.917465 
M222.804138,233.282516 
	C227.314407,231.164322 232.009369,229.364960 236.305176,226.876526 
	C265.769073,209.808914 282.637115,174.780792 276.354919,144.065002 
	C272.142609,123.469521 261.832092,115.350304 240.831650,116.354980 
	C240.242004,114.947990 239.612198,113.438454 238.977234,111.931084 
	C230.757904,92.418648 217.590652,77.237411 199.390717,66.362007 
	C195.350571,63.947803 191.825729,63.968956 187.773300,66.407944 
	C176.486221,73.201164 166.553619,81.531036 159.217743,92.467285 
	C154.157455,100.011131 150.057877,108.199394 145.383194,116.353912 
	C127.859215,115.428238 117.619156,121.614120 112.706253,136.749939 
	C109.357910,147.065628 108.559891,157.685211 110.461853,168.336273 
	C119.763893,220.428207 170.649933,250.128235 222.804138,233.282516 
M538.037415,168.999969 
	C534.872375,169.000061 531.696167,169.164154 528.545593,168.950699 
	C525.796082,168.764404 524.415039,169.442902 523.754333,172.450790 
	C521.792969,181.379684 519.408325,190.215027 517.249023,199.101486 
	C516.779114,201.035294 516.558228,203.029602 516.001099,206.294006 
	C512.709229,192.880005 509.793701,180.999344 506.911224,169.253433 
	C501.875336,169.253433 497.454529,169.253433 492.551239,169.253433 
	C497.515778,186.677872 502.376984,203.739716 507.210754,220.705154 
	C512.610352,220.705154 517.687317,220.705154 522.716064,220.705154 
	C525.834595,207.311081 528.878418,194.237610 531.922241,181.164139 
	C532.203064,181.186508 532.483826,181.208878 532.764648,181.231232 
	C535.816589,194.452972 538.868591,207.674728 541.874207,220.695496 
	C547.335754,220.695496 552.430664,220.695496 557.504028,220.695496 
	C562.476135,203.395325 567.357422,186.411209 572.269531,169.319901 
	C567.136719,169.319901 562.717834,169.319901 558.076477,169.319901 
	C555.059570,181.464142 552.104126,193.361160 549.068848,205.579437 
	C546.409912,194.376160 543.901306,183.585770 541.232910,172.835037 
	C540.890320,171.454956 539.717407,170.280945 538.037415,168.999969 
M305.199890,119.150139 
	C313.438873,137.812988 347.292847,137.690826 355.939484,120.700768 
	C362.389862,108.026253 362.294373,95.026741 356.044281,82.301834 
	C353.116882,76.341797 347.922577,72.159912 341.435394,71.205032 
	C334.977051,70.254387 328.156616,70.019478 321.731262,71.007454 
	C312.652039,72.403496 306.566010,78.420273 303.811707,87.203949 
	C300.527039,97.678940 300.641052,108.173569 305.199890,119.150139 
M701.319702,186.825134 
	C700.026550,188.412369 698.733337,189.999588 696.967529,192.166931 
	C696.967529,177.176956 696.967529,163.117325 696.967529,148.913101 
	C692.308594,148.913101 687.899780,148.913101 683.293335,148.913101 
	C683.293335,172.986725 683.293335,196.841324 683.293335,220.809372 
	C687.989136,220.809372 692.405823,220.809372 696.743958,220.809372 
	C699.028137,213.897415 692.923096,204.417282 703.682983,200.466995 
	C707.916443,206.409729 712.095215,212.414612 716.457642,218.283020 
	C717.335632,219.464172 718.862183,220.812286 720.173096,220.904984 
	C724.720459,221.226593 729.304565,221.029099 734.788452,221.029099 
	C727.121155,210.696747 720.051086,201.169159 712.948914,191.598343 
	C719.742859,184.145737 726.292969,176.960617 733.545349,169.005173 
	C728.888611,169.005173 725.276245,169.233994 721.707642,168.936798 
	C718.534851,168.672562 716.482666,169.848953 714.487244,172.208115 
	C710.407715,177.031296 706.030457,181.602646 701.319702,186.825134 
M621.837097,214.308517 
	C628.607239,205.946793 629.248413,196.345184 627.044739,186.399384 
	C624.481506,174.831009 615.350342,168.071625 602.969910,168.064728 
	C589.947632,168.057480 581.091431,174.521759 578.499634,186.411240 
	C577.696350,190.095840 577.587341,194.029984 577.788757,197.816467 
	C578.333435,208.059082 582.481445,216.375168 592.586060,220.061905 
	C602.977966,223.853455 612.896729,222.822418 621.837097,214.308517 
M399.236603,184.989243 
	C398.933075,186.454178 398.574127,187.910110 398.334564,189.385422 
	C396.022095,203.625031 401.463226,215.608765 412.524353,219.802902 
	C421.759674,223.304749 431.143402,222.739426 440.345428,219.437195 
	C441.463257,219.036041 442.827332,217.623657 442.970367,216.534531 
	C443.341400,213.709412 443.094940,210.803223 443.094940,207.761169 
	C421.680084,213.978790 413.126160,211.413651 412.947235,198.652557 
	C423.848663,198.652557 434.756042,198.652557 445.586884,198.652557 
	C447.628967,182.318375 441.986359,171.770020 430.001434,168.903473 
	C415.590485,165.456680 404.428040,171.065414 399.236603,184.989243 
M653.708435,132.244339 
	C654.234131,130.924377 655.166138,129.620453 655.218933,128.281845 
	C655.540039,120.137482 655.209839,111.936340 656.084717,103.861183 
	C656.406311,100.893440 658.776428,97.091118 661.332336,95.632950 
	C667.417786,92.161064 672.796692,95.941498 672.984497,103.442665 
	C673.221497,112.907242 673.041687,122.382256 673.041687,132.052795 
	C677.484863,132.052795 681.604187,132.052795 685.913086,132.052795 
	C685.913086,120.741852 686.240112,109.593582 685.803467,98.475296 
	C685.487854,90.439537 680.617126,85.745544 672.689575,84.526985 
	C665.500366,83.421921 659.275757,85.350426 654.349182,91.018944 
	C651.610718,84.340919 650.640198,83.931992 642.602966,85.810059 
	C642.602966,101.187309 642.602966,116.564560 642.602966,132.254807 
	C646.224365,132.254807 649.536133,132.254807 653.708435,132.244339 
M432.795135,88.199936 
	C427.491333,92.129990 425.174805,97.699196 424.255646,103.980469 
	C422.007812,119.341469 429.159851,130.751831 442.686859,132.697662 
	C447.224609,133.350403 452.026917,133.180069 456.578064,132.506241 
	C465.305908,131.214020 466.319336,129.281265 464.283844,120.395203 
	C445.117218,127.593384 436.438385,121.361420 437.925476,111.884140 
	C447.634033,111.884140 457.396820,111.884140 467.353333,111.884140 
	C467.353333,108.446556 467.618713,105.306419 467.303131,102.225807 
	C466.388184,93.294525 461.444397,87.138306 453.597839,85.173622 
	C446.576080,83.415459 439.741425,83.849609 432.795135,88.199936 
M606.843811,132.809906 
	C610.536133,130.861023 614.228394,128.912140 617.924866,126.961052 
	C618.586975,128.463348 619.386169,130.276535 620.177979,132.073181 
	C623.126770,132.073181 625.907227,132.073181 628.961121,132.073181 
	C628.961121,120.449226 629.147217,108.995270 628.869080,97.552589 
	C628.758728,93.012146 626.224182,89.397881 622.195740,87.023338 
	C614.511536,82.493965 599.248779,83.434372 591.661072,89.060432 
	C592.946045,91.658493 594.251465,94.297890 595.527771,96.878456 
	C612.440491,91.856331 616.428101,93.018410 615.986145,102.319954 
	C609.538696,103.218414 603.028809,103.609283 596.795959,105.133102 
	C589.975098,106.800690 587.017700,111.476685 587.012268,118.405899 
	C587.003784,129.077362 593.216003,133.826248 606.843811,132.809906 
M703.477051,85.109047 
	C702.075623,85.216324 700.674255,85.323608 699.398865,85.421242 
	C699.398865,101.254761 699.398865,116.516541 699.398865,132.003784 
	C703.677856,132.003784 707.731323,132.003784 712.152161,132.003784 
	C712.152161,124.476448 712.024414,117.187012 712.212097,109.905724 
	C712.292603,106.781937 712.672485,103.570557 713.548462,100.584404 
	C714.938660,95.845291 718.723938,94.416733 723.341309,94.764244 
	C727.982788,95.113556 729.343445,98.398849 729.813416,102.287231 
	C730.051758,104.258751 729.951416,106.274658 729.954529,108.270576 
	C729.966858,116.195747 729.959595,124.120949 729.959595,131.891357 
	C734.626465,131.891357 738.682190,131.891357 742.879578,131.891357 
	C742.879578,120.902107 743.135681,110.263145 742.803589,99.642586 
	C742.503967,90.061653 736.843445,84.706993 727.270325,84.259926 
	C720.975952,83.965988 715.500427,85.900620 711.195862,91.207314 
	C710.340271,89.002419 709.632690,87.179085 708.829468,85.109184 
	C707.305420,85.109184 705.835510,85.109184 703.477051,85.109047 
M508.869171,123.482811 
	C508.869171,126.271446 508.869171,129.060074 508.869171,131.993134 
	C513.346069,131.993134 517.402710,131.993134 521.735657,131.993134 
	C521.735657,120.797104 522.166077,109.832710 521.605896,98.919144 
	C521.115723,89.368202 515.066223,84.371651 505.426697,84.223656 
	C499.374939,84.130730 494.205505,86.237595 490.007935,91.138710 
	C489.127197,88.819893 488.438751,87.007378 487.853729,85.467110 
	C484.452515,85.467110 481.375488,85.467110 478.369324,85.467110 
	C478.369324,101.221725 478.369324,116.616089 478.369324,131.914337 
	C482.740448,131.914337 486.802582,131.914337 491.057617,131.914337 
	C491.057617,128.770142 490.978973,125.957550 491.073151,123.150764 
	C491.306824,116.184326 491.189972,109.167877 492.035339,102.272224 
	C492.718658,96.698784 496.508698,94.331619 501.960266,94.746895 
	C506.372803,95.083023 508.577667,97.677643 508.778503,103.516884 
	C508.995697,109.833000 508.854218,116.161438 508.869171,123.482811 
M547.324036,108.740669 
	C547.383606,103.933403 546.765869,98.999474 547.636414,94.343842 
	C549.799683,82.775162 557.964722,78.301529 569.114014,81.970055 
	C571.426880,82.731064 573.691589,83.638504 576.190674,84.556419 
	C577.007812,82.539452 577.703003,80.871758 578.359497,79.188980 
	C578.998291,77.551636 579.597473,75.898819 580.190186,74.316330 
	C557.465271,62.493443 535.618103,73.349487 533.575317,97.585960 
	C533.019836,104.176834 534.103455,111.325638 536.201416,117.630539 
	C540.223816,129.718552 551.786377,134.851135 567.482361,132.846756 
	C578.014709,131.501785 578.512939,130.907745 577.986755,120.224808 
	C577.973633,119.958565 577.687500,119.705772 577.598938,119.561348 
	C573.311279,120.412392 569.115967,121.626617 564.845459,122.016319 
	C554.789490,122.933960 550.070801,119.363937 547.324036,108.740669 
M459.068817,186.558060 
	C459.097565,193.376450 458.888245,200.206268 459.214539,207.010391 
	C459.634674,215.771225 463.629669,220.832199 471.330811,221.595520 
	C476.027557,222.061050 480.905609,221.270432 485.623627,220.537811 
	C486.778229,220.358505 488.206146,218.309250 488.482819,216.916046 
	C488.954071,214.542923 488.612579,212.008408 488.612579,209.328171 
	C485.557556,209.820404 482.974731,210.464340 480.364868,210.604324 
	C476.326996,210.820892 473.481049,209.131042 473.425934,204.677628 
	C473.325531,196.559677 473.397400,188.439606 473.397400,179.691803 
	C478.404236,179.691803 483.115509,179.691803 487.704376,179.691803 
	C487.704376,175.803299 487.704376,172.551147 487.704376,168.921432 
	C482.810608,168.921432 478.220245,168.921432 473.225647,168.921432 
	C473.225647,165.096161 473.225647,161.665909 473.225647,158.105988 
	C470.013916,158.105988 467.217163,158.105988 464.494171,158.105988 
	C459.022125,169.603973 459.150299,169.870804 455.837097,171.462173 
	C452.011536,173.299667 451.592621,175.960510 452.811493,179.824951 
	C454.853333,179.824951 456.781525,179.824951 459.068848,179.824951 
	C459.068848,181.980927 459.068848,183.779495 459.068817,186.558060 
M654.001343,205.504639 
	C654.001770,202.512070 653.990601,199.519455 654.004639,196.526962 
	C654.055359,185.699600 659.376587,180.740692 670.207031,181.403305 
	C670.956299,181.449142 671.710876,181.409302 672.665527,181.409302 
	C672.981018,176.967865 673.270874,172.888168 673.654480,167.487717 
	C669.229980,168.317810 665.152405,168.358017 661.779053,169.919647 
	C658.407043,171.480667 655.739502,174.563553 652.602173,177.109940 
	C651.871338,174.396622 651.161804,171.762451 650.479858,169.230621 
	C646.770203,169.230621 643.504700,169.230621 640.018311,169.230621 
	C640.018311,186.488953 640.018311,203.523056 640.018311,220.714874 
	C644.702271,220.714874 649.233948,220.714874 654.001343,220.714874 
	C654.001343,215.768723 654.001343,211.134598 654.001343,205.504639 
z"/>
<path fill="#F2FAE5" opacity="1.000000" stroke="none" 
	d="
M222.449158,233.445770 
	C170.649933,250.128235 119.763893,220.428207 110.461853,168.336273 
	C108.559891,157.685211 109.357910,147.065628 112.706253,136.749939 
	C117.619156,121.614120 127.859215,115.428238 145.383194,116.353912 
	C150.057877,108.199394 154.157455,100.011131 159.217743,92.467285 
	C166.553619,81.531036 176.486221,73.201164 187.773300,66.407944 
	C191.825729,63.968956 195.350571,63.947803 199.390717,66.362007 
	C217.590652,77.237411 230.757904,92.418648 238.977234,111.931084 
	C239.612198,113.438454 240.242004,114.947990 240.831650,116.354980 
	C261.832092,115.350304 272.142609,123.469521 276.354919,144.065002 
	C282.637115,174.780792 265.769073,209.808914 236.305176,226.876526 
	C232.009369,229.364960 227.314407,231.164322 222.449158,233.445770 
M158.472061,162.855347 
	C162.433899,183.550369 172.703735,200.281631 189.638855,212.943069 
	C192.473755,215.062576 194.455734,215.232559 197.423737,213.006104 
	C216.599380,198.621429 227.693619,179.792130 230.072952,155.809525 
	C230.323029,153.288757 231.812256,149.972870 233.784683,148.789474 
	C235.919189,147.508804 240.139465,147.155838 241.914642,148.470871 
	C244.128143,150.110611 246.045471,153.939774 245.891403,156.700867 
	C244.728714,177.537766 236.742828,195.700623 223.067856,211.403946 
	C221.711899,212.961044 220.312775,214.480545 218.933670,216.017502 
	C221.032104,216.282104 222.523575,215.777679 223.916275,215.076996 
	C237.453690,208.266006 247.681580,198.098755 254.455353,184.547012 
	C260.837738,171.778275 263.237640,158.391129 259.892578,144.315628 
	C257.448669,134.031967 251.621490,130.292419 241.470306,133.250443 
	C226.545105,137.599625 214.284149,146.360733 204.060928,157.943893 
	C202.745056,159.434799 202.226807,161.758804 201.700424,163.790512 
	C200.599869,168.038559 197.983459,170.651947 193.657410,170.682144 
	C189.622070,170.710312 186.924118,168.455719 185.657303,164.402298 
	C184.987518,162.259171 184.026657,159.959427 182.520462,158.372879 
	C178.404526,154.037354 174.041718,149.916031 169.564728,145.949081 
	C165.109283,142.001236 164.052383,137.702423 167.010544,133.788132 
	C169.999542,129.833008 175.077682,129.501328 179.734665,133.362610 
	C184.665634,137.451080 189.326752,141.865021 193.282120,145.400604 
	C203.966599,137.038986 214.356323,128.908051 224.877625,120.674133 
	C219.635056,106.184975 210.350708,94.032372 197.669922,84.546478 
	C194.612610,82.259445 192.568848,82.141396 189.525864,84.519409 
	C164.141266,104.356827 154.102615,130.287354 158.472061,162.855347 
M144.787888,175.647629 
	C140.565079,161.590820 140.045715,147.260742 142.092636,132.837570 
	C133.834198,131.748657 129.132767,135.437515 127.219215,144.889801 
	C122.498024,168.210861 130.656631,187.401611 146.932205,203.679703 
	C153.945679,210.694275 163.477356,216.149780 169.692108,217.266144 
	C157.863541,205.459717 149.668060,191.983322 144.787888,175.647629 
z"/>
<path fill="#F5F7FA" opacity="1.000000" stroke="none" 
	d="
M371.932404,202.090836 
	C372.115021,201.013824 372.459412,199.936417 372.456818,198.859863 
	C372.366943,161.554565 372.242950,124.249352 372.141083,86.944084 
	C372.139801,86.482048 372.361877,86.019409 372.532898,85.348404 
	C375.860291,85.348404 379.131714,85.348404 382.619873,85.348404 
	C383.238312,87.115265 383.870056,88.920227 384.431854,90.525238 
	C387.447723,88.635368 390.115295,86.220589 393.243317,85.145287 
	C402.047150,82.118813 410.409424,86.223488 413.954254,95.010208 
	C416.981293,102.513542 417.105377,110.331238 415.199341,118.077911 
	C411.428070,133.405487 397.720428,137.934387 385.143982,127.735489 
	C385.143982,158.833496 385.143982,189.626724 385.143982,221.021881 
	C379.285217,221.021881 373.674835,221.204254 368.095001,220.872467 
	C366.938751,220.803711 365.601410,218.997162 364.845886,217.701019 
	C355.802246,202.186218 346.852722,186.616562 337.354797,170.153351 
	C337.354797,187.514618 337.354797,203.929672 337.354797,220.687424 
	C333.298920,220.687424 329.228973,220.687424 324.903870,220.687424 
	C324.903870,198.348923 324.903870,175.930115 324.903870,153.045425 
	C330.283966,153.045425 335.579254,152.790039 340.820648,153.209076 
	C342.294281,153.326889 344.049072,155.165283 344.929565,156.655014 
	C353.816345,171.689987 362.548065,186.816605 371.673492,202.219513 
	C372.220978,202.521988 372.418365,202.522415 372.615723,202.522842 
	C372.607727,202.390549 372.623535,202.151474 372.587799,202.143509 
	C372.375977,202.096222 372.152161,202.102539 371.932404,202.090836 
M402.985809,104.923019 
	C402.773254,103.786873 402.601654,102.641228 402.340942,101.516243 
	C401.312714,97.079292 398.731079,94.589371 393.949341,94.682655 
	C388.941406,94.780357 386.059845,97.486130 385.695404,102.210739 
	C385.342590,106.784775 385.465057,111.468353 386.040649,116.020119 
	C386.588593,120.353142 389.724182,122.583252 394.063110,122.724457 
	C398.562408,122.870888 401.324371,120.379143 402.135620,116.155144 
	C402.785004,112.773872 402.762512,109.263542 402.985809,104.923019 
z"/>
<path fill="#F4F6F8" opacity="1.000000" stroke="none" 
	d="
M538.483276,169.005707 
	C539.717407,170.280945 540.890320,171.454956 541.232910,172.835037 
	C543.901306,183.585770 546.409912,194.376160 549.068848,205.579437 
	C552.104126,193.361160 555.059570,181.464142 558.076477,169.319901 
	C562.717834,169.319901 567.136719,169.319901 572.269531,169.319901 
	C567.357422,186.411209 562.476135,203.395325 557.504028,220.695496 
	C552.430664,220.695496 547.335754,220.695496 541.874207,220.695496 
	C538.868591,207.674728 535.816589,194.452972 532.764648,181.231232 
	C532.483826,181.208878 532.203064,181.186508 531.922241,181.164139 
	C528.878418,194.237610 525.834595,207.311081 522.716064,220.705154 
	C517.687317,220.705154 512.610352,220.705154 507.210754,220.705154 
	C502.376984,203.739716 497.515778,186.677872 492.551239,169.253433 
	C497.454529,169.253433 501.875336,169.253433 506.911224,169.253433 
	C509.793701,180.999344 512.709229,192.880005 516.001099,206.294006 
	C516.558228,203.029602 516.779114,201.035294 517.249023,199.101486 
	C519.408325,190.215027 521.792969,181.379684 523.754333,172.450790 
	C524.415039,169.442902 525.796082,168.764404 528.545593,168.950699 
	C531.696167,169.164154 534.872375,169.000061 538.483276,169.005707 
z"/>
<path fill="#F5F7FA" opacity="1.000000" stroke="none" 
	d="
M305.059814,118.800003 
	C300.641052,108.173569 300.527039,97.678940 303.811707,87.203949 
	C306.566010,78.420273 312.652039,72.403496 321.731262,71.007454 
	C328.156616,70.019478 334.977051,70.254387 341.435394,71.205032 
	C347.922577,72.159912 353.116882,76.341797 356.044281,82.301834 
	C362.294373,95.026741 362.389862,108.026253 355.939484,120.700768 
	C347.292847,137.690826 313.438873,137.812988 305.059814,118.800003 
M328.857574,80.812347 
	C322.918152,81.380409 318.956421,84.643051 317.122131,90.156082 
	C314.641663,97.611084 314.639893,105.237625 317.116943,112.694626 
	C319.209412,118.993950 323.986328,122.071198 330.854095,122.124512 
	C338.044067,122.180328 343.285553,119.222260 344.862549,112.570580 
	C346.173248,107.042221 346.548401,101.059639 346.061340,95.387894 
	C345.162903,84.925941 340.150024,80.856842 328.857574,80.812347 
z"/>
<path fill="#F6F8FA" opacity="1.000000" stroke="none" 
	d="
M701.547729,186.551422 
	C706.030457,181.602646 710.407715,177.031296 714.487244,172.208115 
	C716.482666,169.848953 718.534851,168.672562 721.707642,168.936798 
	C725.276245,169.233994 728.888611,169.005173 733.545349,169.005173 
	C726.292969,176.960617 719.742859,184.145737 712.948914,191.598343 
	C720.051086,201.169159 727.121155,210.696747 734.788452,221.029099 
	C729.304565,221.029099 724.720459,221.226593 720.173096,220.904984 
	C718.862183,220.812286 717.335632,219.464172 716.457642,218.283020 
	C712.095215,212.414612 707.916443,206.409729 703.682983,200.466995 
	C692.923096,204.417282 699.028137,213.897415 696.743958,220.809372 
	C692.405823,220.809372 687.989136,220.809372 683.293335,220.809372 
	C683.293335,196.841324 683.293335,172.986725 683.293335,148.913101 
	C687.899780,148.913101 692.308594,148.913101 696.967529,148.913101 
	C696.967529,163.117325 696.967529,177.176956 696.967529,192.166931 
	C698.733337,189.999588 700.026550,188.412369 701.547729,186.551422 
z"/>
<path fill="#F5F6F9" opacity="1.000000" stroke="none" 
	d="
M621.590332,214.568695 
	C612.896729,222.822418 602.977966,223.853455 592.586060,220.061905 
	C582.481445,216.375168 578.333435,208.059082 577.788757,197.816467 
	C577.587341,194.029984 577.696350,190.095840 578.499634,186.411240 
	C581.091431,174.521759 589.947632,168.057480 602.969910,168.064728 
	C615.350342,168.071625 624.481506,174.831009 627.044739,186.399384 
	C629.248413,196.345184 628.607239,205.946793 621.590332,214.568695 
M613.359985,197.898178 
	C613.038391,194.120346 613.175659,190.230240 612.285339,186.591568 
	C611.020325,181.421814 607.657227,179.449829 602.263123,179.610840 
	C597.252930,179.760406 593.713928,182.288864 593.157776,187.108963 
	C592.541626,192.449158 592.346375,198.064987 593.329346,203.305374 
	C594.568726,209.912704 603.173462,213.211151 608.244080,208.937943 
	C610.903015,206.697220 611.661377,202.201324 613.359985,197.898178 
z"/>
<path fill="#F3F4F7" opacity="1.000000" stroke="none" 
	d="
M399.372314,184.607254 
	C404.428040,171.065414 415.590485,165.456680 430.001434,168.903473 
	C441.986359,171.770020 447.628967,182.318375 445.586884,198.652557 
	C434.756042,198.652557 423.848663,198.652557 412.947235,198.652557 
	C413.126160,211.413651 421.680084,213.978790 443.094940,207.761169 
	C443.094940,210.803223 443.341400,213.709412 442.970367,216.534531 
	C442.827332,217.623657 441.463257,219.036041 440.345428,219.437195 
	C431.143402,222.739426 421.759674,223.304749 412.524353,219.802902 
	C401.463226,215.608765 396.022095,203.625031 398.334564,189.385422 
	C398.574127,187.910110 398.933075,186.454178 399.372314,184.607254 
M431.412781,183.309570 
	C428.057281,178.632401 424.161530,177.084991 419.506409,178.713242 
	C414.772217,180.369141 413.189545,184.050201 413.048981,188.729767 
	C419.690979,188.729767 426.069733,188.729767 432.726624,188.729767 
	C432.355225,186.895279 432.061279,185.443130 431.412781,183.309570 
z"/>
<path fill="#F3F5F7" opacity="1.000000" stroke="none" 
	d="
M653.278198,132.249573 
	C649.536133,132.254807 646.224365,132.254807 642.602966,132.254807 
	C642.602966,116.564560 642.602966,101.187309 642.609497,85.809151 
	C650.640198,83.931992 651.610718,84.340919 654.349182,91.018944 
	C659.275757,85.350426 665.500366,83.421921 672.689575,84.526985 
	C680.617126,85.745544 685.487854,90.439537 685.803467,98.475296 
	C686.240112,109.593582 685.913086,120.741852 685.913086,132.052795 
	C681.604187,132.052795 677.484863,132.052795 673.041687,132.052795 
	C673.041687,122.382256 673.221497,112.907242 672.984497,103.442665 
	C672.796692,95.941498 667.417786,92.161064 661.332336,95.632950 
	C658.776428,97.091118 656.406311,100.893440 656.084717,103.861183 
	C655.209839,111.936340 655.540039,120.137482 655.218933,128.281845 
	C655.166138,129.620453 654.234131,130.924377 653.278198,132.249573 
z"/>
<path fill="#F2F4F6" opacity="1.000000" stroke="none" 
	d="
M433.105103,88.000931 
	C439.741425,83.849609 446.576080,83.415459 453.597839,85.173622 
	C461.444397,87.138306 466.388184,93.294525 467.303131,102.225807 
	C467.618713,105.306419 467.353333,108.446556 467.353333,111.884140 
	C457.396820,111.884140 447.634033,111.884140 437.925476,111.884140 
	C436.438385,121.361420 445.117218,127.593384 464.283844,120.395203 
	C466.319336,129.281265 465.305908,131.214020 456.578064,132.506241 
	C452.026917,133.180069 447.224609,133.350403 442.686859,132.697662 
	C429.159851,130.751831 422.007812,119.341469 424.255646,103.980469 
	C425.174805,97.699196 427.491333,92.129990 433.105103,88.000931 
M455.134308,101.060303 
	C453.352448,95.041046 450.203705,92.817436 444.739471,93.719627 
	C440.195831,94.469810 438.009827,97.538414 438.166046,103.309242 
	C441.941620,103.309242 445.742340,103.454369 449.523926,103.248505 
	C451.437073,103.144363 453.315643,102.405785 455.134308,101.060303 
z"/>
<path fill="#F4F6F8" opacity="1.000000" stroke="none" 
	d="
M606.416382,132.861221 
	C593.216003,133.826248 587.003784,129.077362 587.012268,118.405899 
	C587.017700,111.476685 589.975098,106.800690 596.795959,105.133102 
	C603.028809,103.609283 609.538696,103.218414 615.986145,102.319954 
	C616.428101,93.018410 612.440491,91.856331 595.527771,96.878456 
	C594.251465,94.297890 592.946045,91.658493 591.661072,89.060432 
	C599.248779,83.434372 614.511536,82.493965 622.195740,87.023338 
	C626.224182,89.397881 628.758728,93.012146 628.869080,97.552589 
	C629.147217,108.995270 628.961121,120.449226 628.961121,132.073181 
	C625.907227,132.073181 623.126770,132.073181 620.177979,132.073181 
	C619.386169,130.276535 618.586975,128.463348 617.924866,126.961052 
	C614.228394,128.912140 610.536133,130.861023 606.416382,132.861221 
M601.052002,121.364265 
	C604.590332,125.081543 608.591248,124.364349 612.334778,122.071762 
	C616.664001,119.420509 616.758179,115.181160 615.792114,110.471855 
	C612.619141,110.724800 609.609497,110.681206 606.723328,111.256668 
	C601.492310,112.299637 599.839233,115.124268 601.052002,121.364265 
z"/>
<path fill="#F4F6F9" opacity="1.000000" stroke="none" 
	d="
M703.921326,85.109116 
	C705.835510,85.109184 707.305420,85.109184 708.829468,85.109184 
	C709.632690,87.179085 710.340271,89.002419 711.195862,91.207314 
	C715.500427,85.900620 720.975952,83.965988 727.270325,84.259926 
	C736.843445,84.706993 742.503967,90.061653 742.803589,99.642586 
	C743.135681,110.263145 742.879578,120.902107 742.879578,131.891357 
	C738.682190,131.891357 734.626465,131.891357 729.959595,131.891357 
	C729.959595,124.120949 729.966858,116.195747 729.954529,108.270576 
	C729.951416,106.274658 730.051758,104.258751 729.813416,102.287231 
	C729.343445,98.398849 727.982788,95.113556 723.341309,94.764244 
	C718.723938,94.416733 714.938660,95.845291 713.548462,100.584404 
	C712.672485,103.570557 712.292603,106.781937 712.212097,109.905724 
	C712.024414,117.187012 712.152161,124.476448 712.152161,132.003784 
	C707.731323,132.003784 703.677856,132.003784 699.398865,132.003784 
	C699.398865,116.516541 699.398865,101.254761 699.398865,85.421242 
	C700.674255,85.323608 702.075623,85.216324 703.921326,85.109116 
z"/>
<path fill="#F4F6F9" opacity="1.000000" stroke="none" 
	d="
M508.869171,122.983658 
	C508.854218,116.161438 508.995697,109.833000 508.778503,103.516884 
	C508.577667,97.677643 506.372803,95.083023 501.960266,94.746895 
	C496.508698,94.331619 492.718658,96.698784 492.035339,102.272224 
	C491.189972,109.167877 491.306824,116.184326 491.073151,123.150764 
	C490.978973,125.957550 491.057617,128.770142 491.057617,131.914337 
	C486.802582,131.914337 482.740448,131.914337 478.369324,131.914337 
	C478.369324,116.616089 478.369324,101.221725 478.369324,85.467110 
	C481.375488,85.467110 484.452515,85.467110 487.853729,85.467110 
	C488.438751,87.007378 489.127197,88.819893 490.007935,91.138710 
	C494.205505,86.237595 499.374939,84.130730 505.426697,84.223656 
	C515.066223,84.371651 521.115723,89.368202 521.605896,98.919144 
	C522.166077,109.832710 521.735657,120.797104 521.735657,131.993134 
	C517.402710,131.993134 513.346069,131.993134 508.869171,131.993134 
	C508.869171,129.060074 508.869171,126.271446 508.869171,122.983658 
z"/>
<path fill="#F4F6F8" opacity="1.000000" stroke="none" 
	d="
M547.446472,109.150108 
	C550.070801,119.363937 554.789490,122.933960 564.845459,122.016319 
	C569.115967,121.626617 573.311279,120.412392 577.598938,119.561348 
	C577.687500,119.705772 577.973633,119.958565 577.986755,120.224808 
	C578.512939,130.907745 578.014709,131.501785 567.482361,132.846756 
	C551.786377,134.851135 540.223816,129.718552 536.201416,117.630539 
	C534.103455,111.325638 533.019836,104.176834 533.575317,97.585960 
	C535.618103,73.349487 557.465271,62.493443 580.190186,74.316330 
	C579.597473,75.898819 578.998291,77.551636 578.359497,79.188980 
	C577.703003,80.871758 577.007812,82.539452 576.190674,84.556419 
	C573.691589,83.638504 571.426880,82.731064 569.114014,81.970055 
	C557.964722,78.301529 549.799683,82.775162 547.636414,94.343842 
	C546.765869,98.999474 547.383606,103.933403 547.446472,109.150108 
z"/>
<path fill="#F4F5F8" opacity="1.000000" stroke="none" 
	d="
M459.068848,186.068054 
	C459.068848,183.779495 459.068848,181.980927 459.068848,179.824951 
	C456.781525,179.824951 454.853333,179.824951 452.811493,179.824951 
	C451.592621,175.960510 452.011536,173.299667 455.837097,171.462173 
	C459.150299,169.870804 459.022125,169.603973 464.494171,158.105988 
	C467.217163,158.105988 470.013916,158.105988 473.225647,158.105988 
	C473.225647,161.665909 473.225647,165.096161 473.225647,168.921432 
	C478.220245,168.921432 482.810608,168.921432 487.704376,168.921432 
	C487.704376,172.551147 487.704376,175.803299 487.704376,179.691803 
	C483.115509,179.691803 478.404236,179.691803 473.397400,179.691803 
	C473.397400,188.439606 473.325531,196.559677 473.425934,204.677628 
	C473.481049,209.131042 476.326996,210.820892 480.364868,210.604324 
	C482.974731,210.464340 485.557556,209.820404 488.612579,209.328171 
	C488.612579,212.008408 488.954071,214.542923 488.482819,216.916046 
	C488.206146,218.309250 486.778229,220.358505 485.623627,220.537811 
	C480.905609,221.270432 476.027557,222.061050 471.330811,221.595520 
	C463.629669,220.832199 459.634674,215.771225 459.214539,207.010391 
	C458.888245,200.206268 459.097565,193.376450 459.068848,186.068054 
z"/>
<path fill="#F6F8FB" opacity="1.000000" stroke="none" 
	d="
M654.001343,206.002563 
	C654.001343,211.134598 654.001343,215.768723 654.001343,220.714874 
	C649.233948,220.714874 644.702271,220.714874 640.018311,220.714874 
	C640.018311,203.523056 640.018311,186.488953 640.018311,169.230621 
	C643.504700,169.230621 646.770203,169.230621 650.479858,169.230621 
	C651.161804,171.762451 651.871338,174.396622 652.602173,177.109940 
	C655.739502,174.563553 658.407043,171.480667 661.779053,169.919647 
	C665.152405,168.358017 669.229980,168.317810 673.654480,167.487717 
	C673.270874,172.888168 672.981018,176.967865 672.665527,181.409302 
	C671.710876,181.409302 670.956299,181.449142 670.207031,181.403305 
	C659.376587,180.740692 654.055359,185.699600 654.004639,196.526962 
	C653.990601,199.519455 654.001770,202.512070 654.001343,206.002563 
z"/>
<path fill="#040403" opacity="1.000000" stroke="none" 
	d="
M158.388855,162.428238 
	C154.102615,130.287354 164.141266,104.356827 189.525864,84.519409 
	C192.568848,82.141396 194.612610,82.259445 197.669922,84.546478 
	C210.350708,94.032372 219.635056,106.184975 224.877625,120.674133 
	C214.356323,128.908051 203.966599,137.038986 193.282120,145.400604 
	C189.326752,141.865021 184.665634,137.451080 179.734665,133.362610 
	C175.077682,129.501328 169.999542,129.833008 167.010544,133.788132 
	C164.052383,137.702423 165.109283,142.001236 169.564728,145.949081 
	C174.041718,149.916031 178.404526,154.037354 182.520462,158.372879 
	C184.026657,159.959427 184.987518,162.259171 185.657303,164.402298 
	C186.924118,168.455719 189.622070,170.710312 193.657410,170.682144 
	C197.983459,170.651947 200.599869,168.038559 201.700424,163.790512 
	C202.226807,161.758804 202.745056,159.434799 204.060928,157.943893 
	C214.284149,146.360733 226.545105,137.599625 241.470306,133.250443 
	C251.621490,130.292419 257.448669,134.031967 259.892578,144.315628 
	C263.237640,158.391129 260.837738,171.778275 254.455353,184.547012 
	C247.681580,198.098755 237.453690,208.266006 223.916275,215.076996 
	C222.523575,215.777679 221.032104,216.282104 218.933670,216.017502 
	C220.312775,214.480545 221.711899,212.961044 223.067856,211.403946 
	C236.742828,195.700623 244.728714,177.537766 245.891403,156.700867 
	C246.045471,153.939774 244.128143,150.110611 241.914642,148.470871 
	C240.139465,147.155838 235.919189,147.508804 233.784683,148.789474 
	C231.812256,149.972870 230.323029,153.288757 230.072952,155.809525 
	C227.693619,179.792130 216.599380,198.621429 197.423737,213.006104 
	C194.455734,215.232559 192.473755,215.062576 189.638855,212.943069 
	C172.703735,200.281631 162.433899,183.550369 158.388855,162.428238 
z"/>
<path fill="#060706" opacity="1.000000" stroke="none" 
	d="
M144.889236,176.037231 
	C149.668060,191.983322 157.863541,205.459717 169.692108,217.266144 
	C163.477356,216.149780 153.945679,210.694275 146.932205,203.679703 
	C130.656631,187.401611 122.498024,168.210861 127.219215,144.889801 
	C129.132767,135.437515 133.834198,131.748657 142.092636,132.837570 
	C140.045715,147.260742 140.565079,161.590820 144.889236,176.037231 
z"/>
<path fill="#070707" opacity="1.000000" stroke="none" 
	d="
M403.012024,105.366760 
	C402.762512,109.263542 402.785004,112.773872 402.135620,116.155144 
	C401.324371,120.379143 398.562408,122.870888 394.063110,122.724457 
	C389.724182,122.583252 386.588593,120.353142 386.040649,116.020119 
	C385.465057,111.468353 385.342590,106.784775 385.695404,102.210739 
	C386.059845,97.486130 388.941406,94.780357 393.949341,94.682655 
	C398.731079,94.589371 401.312714,97.079292 402.340942,101.516243 
	C402.601654,102.641228 402.773254,103.786873 403.012024,105.366760 
z"/>
<path fill="#010101" opacity="1.000000" stroke="none" 
	d="
M371.955017,202.059906 
	C372.152161,202.102539 372.375977,202.096222 372.587799,202.143509 
	C372.623535,202.151474 372.607727,202.390549 372.615723,202.522842 
	C372.418365,202.522415 372.220978,202.521988 372.026001,202.246521 
	C372.028381,201.971481 371.977661,202.028961 371.955017,202.059906 
z"/>
<path fill="#040404" opacity="1.000000" stroke="none" 
	d="
M329.293396,80.776886 
	C340.150024,80.856842 345.162903,84.925941 346.061340,95.387894 
	C346.548401,101.059639 346.173248,107.042221 344.862549,112.570580 
	C343.285553,119.222260 338.044067,122.180328 330.854095,122.124512 
	C323.986328,122.071198 319.209412,118.993950 317.116943,112.694626 
	C314.639893,105.237625 314.641663,97.611084 317.122131,90.156082 
	C318.956421,84.643051 322.918152,81.380409 329.293396,80.776886 
z"/>
<path fill="#050505" opacity="1.000000" stroke="none" 
	d="
M613.318970,198.311005 
	C611.661377,202.201324 610.903015,206.697220 608.244080,208.937943 
	C603.173462,213.211151 594.568726,209.912704 593.329346,203.305374 
	C592.346375,198.064987 592.541626,192.449158 593.157776,187.108963 
	C593.713928,182.288864 597.252930,179.760406 602.263123,179.610840 
	C607.657227,179.449829 611.020325,181.421814 612.285339,186.591568 
	C613.175659,190.230240 613.038391,194.120346 613.318970,198.311005 
z"/>
<path fill="#0A0A0A" opacity="1.000000" stroke="none" 
	d="
M431.590027,183.650269 
	C432.061279,185.443130 432.355225,186.895279 432.726624,188.729767 
	C426.069733,188.729767 419.690979,188.729767 413.048981,188.729767 
	C413.189545,184.050201 414.772217,180.369141 419.506409,178.713242 
	C424.161530,177.084991 428.057281,178.632401 431.590027,183.650269 
z"/>
<path fill="#040404" opacity="1.000000" stroke="none" 
	d="
M455.172089,101.507179 
	C453.315643,102.405785 451.437073,103.144363 449.523926,103.248505 
	C445.742340,103.454369 441.941620,103.309242 438.166046,103.309242 
	C438.009827,97.538414 440.195831,94.469810 444.739471,93.719627 
	C450.203705,92.817436 453.352448,95.041046 455.172089,101.507179 
z"/>
<path fill="#09090A" opacity="1.000000" stroke="none" 
	d="
M600.902222,121.005661 
	C599.839233,115.124268 601.492310,112.299637 606.723328,111.256668 
	C609.609497,110.681206 612.619141,110.724800 615.792114,110.471855 
	C616.758179,115.181160 616.664001,119.420509 612.334778,122.071762 
	C608.591248,124.364349 604.590332,125.081543 600.902222,121.005661 
z"/>
</svg>